<svg width="19" height="19" viewBox="0 0 19 19" fill="none" xmlns="http://www.w3.org/2000/svg">
<g clip-path="url(#clip0_740_11502)">
<path d="M2.58057 9.27108C2.58057 10.1528 2.75423 11.0259 3.09164 11.8404C3.42906 12.655 3.92361 13.3952 4.54707 14.0186C5.17053 14.6421 5.91069 15.1367 6.72528 15.4741C7.53986 15.8115 8.41294 15.9852 9.29464 15.9852C10.1763 15.9852 11.0494 15.8115 11.864 15.4741C12.6786 15.1367 13.4187 14.6421 14.0422 14.0186C14.6657 13.3952 15.1602 12.655 15.4976 11.8404C15.8351 11.0259 16.0087 10.1528 16.0087 9.27108C16.0087 8.38938 15.8351 7.51631 15.4976 6.70172C15.1602 5.88713 14.6657 5.14697 14.0422 4.52351C13.4187 3.90005 12.6786 3.4055 11.864 3.06809C11.0494 2.73067 10.1763 2.55701 9.29464 2.55701C8.41294 2.55701 7.53986 2.73067 6.72528 3.06809C5.91069 3.4055 5.17053 3.90005 4.54707 4.52351C3.92361 5.14697 3.42906 5.88713 3.09164 6.70172C2.75423 7.51631 2.58057 8.38938 2.58057 9.27108Z" stroke="white" stroke-width="1.11901" stroke-linecap="round" stroke-linejoin="round"/>
<path d="M9.29507 11.5091L6.31104 8.52502H12.2791L9.29507 11.5091Z" stroke="white" stroke-width="1.11901" stroke-linecap="round" stroke-linejoin="round"/>
</g>
<defs>
<clipPath id="clip0_740_11502">
<rect width="17.9042" height="17.9042" fill="white" transform="translate(0.342773 0.31897)"/>
</clipPath>
</defs>
</svg>
