<svg width="21" height="21" viewBox="0 0 21 21" fill="none" xmlns="http://www.w3.org/2000/svg">
<path d="M20.6154 10.3077C20.6154 4.61432 16.0011 0 10.3077 0C4.61432 0 0 4.61432 0 10.3077C0 15.4535 3.76875 19.7175 8.69711 20.4906V13.2873H6.07991V10.3077H8.69711V8.03678C8.69711 5.4538 10.2352 4.02644 12.5907 4.02644C13.7181 4.02644 14.8978 4.22776 14.8978 4.22776V6.76442H13.5973C12.3169 6.76442 11.9183 7.55966 11.9183 8.375V10.3077H14.777L14.32 13.2873H11.9183V20.4906C16.8466 19.7175 20.6154 15.4535 20.6154 10.3077Z" fill="#1877F2"/>
<path d="M14.3202 13.2872L14.7772 10.3077H11.9184V8.37499C11.9184 7.55965 12.317 6.76441 13.5975 6.76441H14.898V4.22775C14.898 4.22775 13.7182 4.02643 12.5908 4.02643C10.2354 4.02643 8.69729 5.45379 8.69729 8.03676V10.3077H6.08008V13.2872H8.69729V20.4906C9.22272 20.5731 9.76027 20.6154 10.3079 20.6154C10.8555 20.6154 11.393 20.5731 11.9184 20.4906V13.2872H14.3202Z" fill="white"/>
</svg>
