<svg width="31" height="32" viewBox="0 0 31 32" fill="none" xmlns="http://www.w3.org/2000/svg">
<path d="M30.4615 16.0304C30.4615 7.6178 23.6434 0.799622 15.2308 0.799622C6.81818 0.799622 0 7.6178 0 16.0304C0 23.6339 5.56875 29.9344 12.851 31.0767V20.433H8.98374V16.0304H12.851V12.6749C12.851 8.85822 15.1237 6.74914 18.6041 6.74914C20.27 6.74914 22.0132 7.04662 22.0132 7.04662V10.7948H20.0915C18.1996 10.7948 17.6106 11.9699 17.6106 13.1746V16.0304H21.8347L21.1595 20.433H17.6106V31.0767C24.8928 29.9344 30.4615 23.6339 30.4615 16.0304Z" fill="#1877F2"/>
<path d="M21.1596 20.433L21.8348 16.0304H17.6107V13.1746C17.6107 11.9699 18.1997 10.7948 20.0917 10.7948H22.0134V7.04662C22.0134 7.04662 20.2701 6.74915 18.6043 6.74915C15.1239 6.74915 12.8511 8.85823 12.8511 12.6749V16.0304H8.98389V20.433H12.8511V31.0767C13.6275 31.1987 14.4218 31.2612 15.2309 31.2612C16.04 31.2612 16.8343 31.1987 17.6107 31.0767V20.433H21.1596Z" fill="white"/>
</svg>
