<svg width="125" height="88" viewBox="0 0 125 88" fill="none" xmlns="http://www.w3.org/2000/svg">
<g opacity="0.7" filter="url(#filter0_d_740_11557)">
<path d="M9.70508 21.644L13.5423 18.3098L17.8662 17.5996L20.0301 15.8875L24.6533 16.2161L44.3775 10.1991L50.5852 12.1218L56.5499 11.867L60.8587 14.0385L75.9671 13.2458L75.6372 17.9709L79.946 20.1423L81.7399 18.4041L86.9179 18.772L86.7883 20.6281L89.5621 20.825L94.1698 24.0353L101.15 25.2094L101.847 31.1944L105.393 33.6507L111.542 33.409L115.151 40.2793L114.396 47.7316L108 48.7414L102.277 44.0288L94.3664 45.6931L89.317 49.2464L82.2479 54.1273L78.0401 53.7906L76.3569 56.9885L70.1294 57.3251L73.4956 60.1863L71.1392 62.7109L66.9314 62.3743L67.9413 66.7503L62.2187 67.7601L61.0405 71.9678L54.8129 74.6607L50.8262 75.2256L48.0679 72.1466L40.2855 74.4769L40.0384 78.0208L32.157 76.4438L27.5341 76.1153L23.9177 74.6715L26.2465 70.5971L24.3065 69.1026L26.6471 64.8595L26.8827 61.4846L28.0545 58.0064L24.3008 55.8743L26.1997 52.9491L25.5265 51.0977" stroke="white" stroke-width="1.21185" stroke-linecap="round" stroke-linejoin="round" stroke-dasharray="0.93 1.86"/>
</g>
<defs>
<filter id="filter0_d_740_11557" x="0.0343695" y="0.528449" width="124.788" height="87.1631" filterUnits="userSpaceOnUse" color-interpolation-filters="sRGB">
<feFlood flood-opacity="0" result="BackgroundImageFix"/>
<feColorMatrix in="SourceAlpha" type="matrix" values="0 0 0 0 0 0 0 0 0 0 0 0 0 0 0 0 0 0 127 0" result="hardAlpha"/>
<feOffset/>
<feGaussianBlur stdDeviation="4.53238"/>
<feColorMatrix type="matrix" values="0 0 0 0 1 0 0 0 0 1 0 0 0 0 1 0 0 0 1 0"/>
<feBlend mode="normal" in2="BackgroundImageFix" result="effect1_dropShadow_740_11557"/>
<feBlend mode="normal" in="SourceGraphic" in2="effect1_dropShadow_740_11557" result="shape"/>
</filter>
</defs>
</svg>
