<svg width="114" height="132" viewBox="0 0 114 132" fill="none" xmlns="http://www.w3.org/2000/svg">
<g opacity="0.7" filter="url(#filter0_d_740_11555)">
<path d="M9.73535 24.7473L15.3015 15.3743L17.4484 13.9948L24.3163 19.7587L29.3246 20.1145L27.1187 22.3405L28.3225 23.7876L31.476 24.0118L33.6701 21.9548L37.4591 23.7556L35.0758 28.5224L38.0873 30.7788L37.8392 34.3351L44.4734 32.7638L48.2271 35.0729L49.4736 30.566L62.051 23.9701L64.4625 24.1414L60.9337 18.6145L70.3148 17.7488L70.4639 10.2705L77.3826 10.1945L78.1901 12.369L79.1572 17.9689L80.5324 22.9801L82.5134 26.9265L85.5737 31.2056L93.7631 31.9219L94.7686 33.6215L94.7615 38.8323L96.8755 40.3174L102.589 41.1744L103.173 45.5942L104.275 50.5902L100.757 54.7884L100.285 63.5394L102.829 67.3738L97.4222 70.0536L90.3736 69.553L85.5349 72.1029L81.9041 73.377L77.7488 76.8262L75.1992 75.9645L73.3713 72.7711L70.7982 72.2479L69.8152 70.306L68.5485 72.4287L67.2501 72.3365L67.171 70.7988L63.3783 71.7212L60.0783 68.253L58.1882 68.6293L57.1625 72.6415L54.8418 73.8381L54.7472 75.193L51.9138 78.3959L48.5829 80.7125L51.0383 82.9291L51.2874 87.372L56.4738 93.187L60.933 88.057L61.6433 85.895L65.2506 84.9595L67.5554 86.6551L67.3074 90.2117L67.0472 93.9377L64.3993 97.1537L58.6016 97.423L58.4242 99.9634L52.4868 103.307L63.9027 104.267L65.3475 107.604L65.0402 112.007L66.8125 113.324L67.5824 118.315L64.5733 121.949L60.0783 121.019" stroke="white" stroke-width="1.21185" stroke-linejoin="round" stroke-dasharray="0.93 1.86"/>
</g>
<defs>
<filter id="filter0_d_740_11555" x="0.149604" y="0.52381" width="113.796" height="131.096" filterUnits="userSpaceOnUse" color-interpolation-filters="sRGB">
<feFlood flood-opacity="0" result="BackgroundImageFix"/>
<feColorMatrix in="SourceAlpha" type="matrix" values="0 0 0 0 0 0 0 0 0 0 0 0 0 0 0 0 0 0 127 0" result="hardAlpha"/>
<feOffset/>
<feGaussianBlur stdDeviation="4.53238"/>
<feColorMatrix type="matrix" values="0 0 0 0 1 0 0 0 0 1 0 0 0 0 1 0 0 0 1 0"/>
<feBlend mode="normal" in2="BackgroundImageFix" result="effect1_dropShadow_740_11555"/>
<feBlend mode="normal" in="SourceGraphic" in2="effect1_dropShadow_740_11555" result="shape"/>
</filter>
</defs>
</svg>
