<svg width="116" height="125" viewBox="0 0 116 125" fill="none" xmlns="http://www.w3.org/2000/svg">
<g opacity="0.7" filter="url(#filter0_d_740_11561)">
<path d="M62.926 98.2218L62.9482 98.4948C63.0596 98.4857 63.1546 98.41 63.1876 98.3029L62.926 98.2218ZM66.3252 87.2562L66.5868 87.3377C66.6269 87.2091 66.5673 87.0704 66.4464 87.0109L66.3252 87.2562ZM61.1722 84.7077L60.8992 84.6865C60.8908 84.798 60.9507 84.9037 61.051 84.9531L61.1722 84.7077ZM61.4738 80.796L61.7468 80.8172C61.7529 80.736 61.7229 80.6566 61.665 80.6L61.4738 80.796ZM53.2753 72.7882L53.4665 72.5923C53.3918 72.5193 53.2824 72.495 53.1841 72.5301L53.2753 72.7882ZM50.0706 73.9196L49.7976 73.8981C49.7902 73.9906 49.8303 74.0802 49.904 74.1367C49.9774 74.1933 50.0746 74.2084 50.1618 74.1778L50.0706 73.9196ZM50.5755 67.3667L50.4274 67.1365C50.3554 67.1826 50.3089 67.26 50.3025 67.3455L50.5755 67.3667ZM53.1767 65.6975L53.3248 65.928C53.3887 65.887 53.4328 65.821 53.4463 65.7459C53.4598 65.6712 53.4412 65.5938 53.3955 65.5332L53.1767 65.6975ZM49.1708 60.3638L48.9005 60.4076C48.9076 60.4513 48.9251 60.4927 48.952 60.5284L49.1708 60.3638ZM48.3882 55.5472L48.6585 55.5034C48.6531 55.4708 48.642 55.4395 48.6255 55.4112L48.3882 55.5472ZM46.5583 52.3568L46.4751 52.0959C46.396 52.1208 46.3331 52.1804 46.3031 52.2575C46.2731 52.3345 46.2795 52.4211 46.3209 52.4927L46.5583 52.3568ZM52.667 50.4088L52.7501 50.67C52.7579 50.6673 52.7656 50.6646 52.773 50.6616L52.667 50.4088ZM54.3976 49.6813L54.5494 49.4535C54.4727 49.4026 54.3757 49.3932 54.2912 49.4289L54.3976 49.6813ZM57.2505 51.5839L57.0987 51.8118C57.1562 51.8501 57.2263 51.8653 57.2943 51.8542L57.2505 51.5839ZM63.5885 50.5596L63.7925 50.3765C63.7299 50.3071 63.6366 50.2741 63.5447 50.2889L63.5885 50.5596ZM65.8658 53.0953L66.0697 52.9128L66.0694 52.9125L65.8658 53.0953ZM74.1801 62.3909L73.9761 62.5733C74.0262 62.6296 74.0976 62.6625 74.1733 62.6646C74.2487 62.6666 74.3218 62.6373 74.3746 62.5834L74.1801 62.3909ZM77.5608 58.9743L77.5817 58.7013C77.5016 58.6952 77.4228 58.7245 77.3662 58.7817L77.5608 58.9743ZM83.0114 59.3927L83.2844 59.4139C83.2902 59.3415 83.2666 59.2698 83.2191 59.2146C83.172 59.1594 83.1047 59.1251 83.0323 59.1197L83.0114 59.3927ZM82.6923 63.5361L82.419 63.5148C82.4136 63.5872 82.4372 63.6589 82.4843 63.7141C82.5318 63.7693 82.5991 63.8037 82.6715 63.8091L82.6923 63.5361ZM94.555 64.4466L94.6281 64.1827C94.6109 64.178 94.5934 64.1749 94.5759 64.1736L94.555 64.4466ZM100.45 66.0795L100.377 66.3434C100.493 66.3761 100.618 66.3276 100.682 66.2249L100.45 66.0795ZM105.967 57.2558L106.2 57.4009C106.246 57.3269 106.254 57.2346 106.221 57.1532L105.967 57.2558ZM105.064 55.0221L105.318 54.9197C105.29 54.8504 105.235 54.7955 105.166 54.7679L105.064 55.0221ZM101.414 53.5615L101.143 53.5204C101.125 53.646 101.195 53.7682 101.313 53.8156L101.414 53.5615ZM102.734 44.8085L103.004 44.8496C103.02 44.7476 102.976 44.6453 102.892 44.5853L102.734 44.8085ZM94.7035 39.1039L94.4685 39.2446C94.488 39.2769 94.5143 39.3052 94.5452 39.3271L94.7035 39.1039ZM93.5337 37.1505L93.7687 37.0098C93.7215 36.9314 93.6384 36.8812 93.5465 36.8769L93.5337 37.1505ZM80.8146 34.8888L80.9351 34.6431C80.9035 34.6276 80.8688 34.6182 80.8335 34.6155L80.8146 34.8888ZM70.9717 34.1914L70.7909 34.3967C70.836 34.4364 70.8929 34.4603 70.9528 34.4647L70.9717 34.1914ZM64.4674 28.4592L64.2045 28.3827C64.1749 28.4847 64.2072 28.5945 64.2866 28.6645L64.4674 28.4592ZM66.6838 20.7941L66.9467 20.8702C66.9763 20.7682 66.944 20.6581 66.8642 20.5881C66.7841 20.5181 66.671 20.5006 66.5737 20.543L66.6838 20.7941ZM60.3303 23.5745L60.2202 23.3238C60.1711 23.3453 60.129 23.381 60.1 23.4261L60.3303 23.5745ZM58.2361 26.8273L58.1597 27.0901C58.2762 27.1241 58.4011 27.0774 58.4667 26.9757L58.2361 26.8273ZM50.5547 24.5824L50.6314 24.3195C50.5994 24.3101 50.5658 24.3067 50.5328 24.3094L50.5547 24.5824ZM39.2939 25.4848L39.0205 25.4656C39.0152 25.5451 39.0444 25.6232 39.1013 25.6794C39.1579 25.7356 39.2363 25.7642 39.3158 25.7578L39.2939 25.4848ZM39.5305 22.1009L39.8039 22.12C39.8143 21.9692 39.7005 21.8383 39.5497 21.8275L39.5305 22.1009ZM37.3021 21.943L37.0634 22.077C37.1085 22.1571 37.191 22.2096 37.2829 22.216L37.3021 21.943ZM34.3145 16.6299L34.5532 16.4956C34.498 16.3976 34.3886 16.3431 34.2768 16.3585L34.3145 16.6299ZM22.0657 18.3126L21.861 18.4944C21.922 18.5627 22.0125 18.5964 22.1031 18.5839L22.0657 18.3126ZM19.6433 15.5901L19.8478 15.4083C19.7571 15.3063 19.6052 15.2864 19.4916 15.3618L19.6433 15.5901ZM17.0988 17.2802L16.8976 17.466C16.9889 17.565 17.1385 17.5828 17.2505 17.5084L17.0988 17.2802ZM10.0078 9.19237C9.90512 9.08095 9.73186 9.07388 9.62077 9.17654C9.50965 9.27921 9.50278 9.45223 9.60539 9.56365L10.0078 9.19237ZM84.5434 36.7227L84.4226 36.9684C84.4562 36.9849 84.4929 36.9944 84.5306 36.996L84.5434 36.7227ZM52.8878 99.0239L52.8659 98.751C52.7286 98.7621 52.6205 98.8735 52.6145 99.0112L52.8878 99.0239ZM9.84847 9.82688C9.9511 9.9383 10.1244 9.94537 10.2354 9.8427C10.3466 9.74004 10.3534 9.56702 10.2508 9.4556L9.84847 9.82688ZM11.2231 10.5092C11.1205 10.3981 10.9472 10.3911 10.8361 10.4937C10.725 10.596 10.7181 10.7694 10.8208 10.8805L11.2231 10.5092ZM11.3069 11.4076C11.4095 11.5187 11.5828 11.5258 11.6939 11.4231C11.805 11.3208 11.8119 11.1474 11.7093 11.036L11.3069 11.4076ZM12.6816 12.0899C12.5789 11.9785 12.4057 11.9715 12.2946 12.0741C12.1835 12.1768 12.1766 12.3498 12.2792 12.4612L12.6816 12.0899ZM12.7654 12.988C12.868 13.0991 13.0413 13.1062 13.1523 13.0035C13.2635 12.9012 13.2703 12.7278 13.1677 12.6167L12.7654 12.988ZM14.14 13.6703C14.0374 13.5589 13.8641 13.5522 13.753 13.6545C13.6419 13.7572 13.635 13.9305 13.7377 14.0416L14.14 13.6703ZM14.2238 14.5684C14.3264 14.6795 14.4997 14.6866 14.6108 14.5843C14.7219 14.4816 14.7288 14.3082 14.6262 14.1971L14.2238 14.5684ZM15.5985 15.2507C15.4958 15.1397 15.3226 15.1326 15.2115 15.2349C15.1004 15.3376 15.0935 15.511 15.1961 15.622L15.5985 15.2507ZM15.6823 16.1488C15.7849 16.2603 15.9582 16.267 16.0692 16.1647C16.1804 16.062 16.1872 15.889 16.0846 15.7775L15.6823 16.1488ZM17.0569 16.8312C16.9543 16.7201 16.781 16.713 16.6699 16.8157C16.5588 16.918 16.552 17.0914 16.6546 17.2024L17.0569 16.8312ZM17.4625 17.3677C17.5884 17.2839 17.6226 17.1139 17.5389 16.988C17.4551 16.8621 17.2851 16.8278 17.1592 16.9113L17.4625 17.3677ZM18.0074 16.3478C17.8814 16.4316 17.8472 16.6016 17.931 16.7275C18.0147 16.8537 18.1847 16.888 18.3107 16.8042L18.0074 16.3478ZM18.7347 16.5225C18.8607 16.439 18.8949 16.269 18.8111 16.1428C18.7274 16.0169 18.5574 15.9826 18.4314 16.066L18.7347 16.5225ZM19.2796 15.5029C19.1537 15.5864 19.1195 15.7563 19.2032 15.8826C19.287 16.0085 19.457 16.0428 19.5829 15.959L19.2796 15.5029ZM19.6406 15.999C19.7413 16.1121 19.9143 16.1222 20.0273 16.0216C20.1402 15.9213 20.1503 15.7479 20.0497 15.6352L19.6406 15.999ZM20.8572 16.5423C20.7566 16.4296 20.5836 16.4191 20.4704 16.5198C20.3577 16.6201 20.3476 16.7935 20.4482 16.9066L20.8572 16.5423ZM20.8518 17.36C20.9525 17.4731 21.1255 17.4832 21.2386 17.3829C21.3514 17.2822 21.3615 17.1092 21.2608 16.9961L20.8518 17.36ZM22.0684 17.9036C21.9678 17.7905 21.7947 17.7804 21.6816 17.8811C21.5689 17.9814 21.5588 18.1544 21.6594 18.2675L22.0684 17.9036ZM22.4434 18.5371C22.5932 18.5166 22.6979 18.3782 22.677 18.2284C22.6565 18.0786 22.5181 17.974 22.3683 17.9945L22.4434 18.5371ZM23.7293 17.8073C23.5795 17.8279 23.4748 17.9662 23.4957 18.116C23.5162 18.2658 23.6546 18.3705 23.8044 18.35L23.7293 17.8073ZM24.4847 18.2567C24.6348 18.2358 24.7392 18.0978 24.7187 17.948C24.6978 17.7982 24.5598 17.6932 24.41 17.7141L24.4847 18.2567ZM25.771 17.5269C25.6212 17.5475 25.5165 17.6858 25.537 17.8356C25.5579 17.9854 25.6959 18.0901 25.8457 18.0696L25.771 17.5269ZM26.5263 17.976C26.6761 17.9554 26.7808 17.8174 26.76 17.6676C26.7394 17.5178 26.6011 17.4128 26.4513 17.4334L26.5263 17.976ZM27.8123 17.2465C27.6625 17.2671 27.5578 17.4054 27.5786 17.5552C27.5992 17.705 27.7375 17.8097 27.8873 17.7892L27.8123 17.2465ZM28.5676 17.6956C28.7178 17.675 28.8221 17.537 28.8016 17.3872C28.7807 17.2371 28.6427 17.1324 28.4929 17.153L28.5676 17.6956ZM29.8539 16.9661C29.7041 16.9867 29.5994 17.1247 29.6199 17.2748C29.6408 17.4246 29.7788 17.5293 29.929 17.5088L29.8539 16.9661ZM30.6093 17.4152C30.7591 17.3946 30.8638 17.2566 30.8429 17.1065C30.8224 16.9567 30.684 16.852 30.5342 16.8726L30.6093 17.4152ZM31.8952 16.6857C31.7454 16.7063 31.6407 16.8443 31.6616 16.9941C31.6821 17.1442 31.8205 17.2489 31.9703 17.2284L31.8952 16.6857ZM32.6509 17.1348C32.8007 17.1142 32.9054 16.9759 32.8845 16.8261C32.8637 16.6763 32.7256 16.5716 32.5758 16.5922L32.6509 17.1348ZM33.9368 16.405C33.787 16.4259 33.6823 16.5639 33.7029 16.7137C33.7237 16.8635 33.8618 16.9685 34.0119 16.948L33.9368 16.405ZM34.2418 17.059C34.3159 17.191 34.4828 17.2378 34.6148 17.1637C34.7464 17.0897 34.7932 16.9227 34.7191 16.7908L34.2418 17.059ZM35.383 17.9716C35.3089 17.8397 35.1419 17.7929 35.01 17.8669C34.8784 17.941 34.8316 18.1079 34.9056 18.2395L35.383 17.9716ZM35.2375 18.83C35.3119 18.9619 35.4789 19.0087 35.6105 18.9347C35.7425 18.8606 35.7893 18.6936 35.7149 18.562L35.2375 18.83ZM36.379 19.7425C36.3046 19.6106 36.1377 19.5638 36.0061 19.6378C35.8741 19.7119 35.8273 19.8789 35.9017 20.0108L36.379 19.7425ZM36.2336 20.6009C36.3077 20.7329 36.4746 20.78 36.6066 20.7059C36.7382 20.6319 36.785 20.4649 36.711 20.333L36.2336 20.6009ZM37.3748 21.5135C37.3007 21.3815 37.1338 21.3347 37.0018 21.4088C36.8698 21.4828 36.8234 21.6498 36.8974 21.7817L37.3748 21.5135ZM37.6545 22.2422C37.8053 22.253 37.9363 22.1392 37.9467 21.9884C37.9571 21.8376 37.8434 21.7067 37.6926 21.6959L37.6545 22.2422ZM39.1784 21.8013C39.0273 21.7905 38.8967 21.9043 38.8859 22.0551C38.8755 22.2059 38.9892 22.3368 39.14 22.3476L39.1784 21.8013ZM39.2377 22.3634C39.2272 22.5142 39.341 22.6452 39.4918 22.6559C39.6426 22.6667 39.7736 22.5529 39.784 22.4021L39.2377 22.3634ZM39.7052 23.5301C39.7157 23.3793 39.6019 23.2484 39.4511 23.2376C39.3003 23.2268 39.1693 23.3406 39.1589 23.4914L39.7052 23.5301ZM39.1192 24.0556C39.1087 24.2064 39.2225 24.3373 39.3733 24.3481C39.5241 24.3589 39.6551 24.2451 39.6655 24.0943L39.1192 24.0556ZM39.5867 25.2223C39.5972 25.0715 39.4834 24.9402 39.3326 24.9298C39.1818 24.919 39.0508 25.0328 39.0404 25.1836L39.5867 25.2223ZM39.6288 25.7329C39.7793 25.7208 39.8917 25.5888 39.8796 25.438C39.8675 25.2872 39.7352 25.1748 39.5844 25.1869L39.6288 25.7329ZM40.8356 25.0866C40.6848 25.0987 40.5727 25.2307 40.5848 25.3815C40.597 25.5323 40.7292 25.6447 40.8801 25.6326L40.8356 25.0866ZM41.5055 25.5825C41.6563 25.5703 41.7687 25.4384 41.7563 25.2876C41.7442 25.1368 41.6122 25.0243 41.4614 25.0365L41.5055 25.5825ZM42.7126 24.9362C42.5618 24.9483 42.4494 25.0802 42.4619 25.231C42.474 25.3818 42.6059 25.4943 42.7567 25.4821L42.7126 24.9362ZM43.3825 25.432C43.533 25.4199 43.6454 25.2879 43.6333 25.1371C43.6209 24.9863 43.4889 24.8739 43.3381 24.886L43.3825 25.432ZM44.5893 24.7857C44.4385 24.7978 44.3264 24.9298 44.3386 25.0806C44.3507 25.2314 44.483 25.3438 44.6338 25.3317L44.5893 24.7857ZM45.2592 25.2815C45.41 25.2694 45.5221 25.1374 45.51 24.9866C45.4979 24.8358 45.3656 24.7234 45.2151 24.7355L45.2592 25.2815ZM46.4664 24.6352C46.3156 24.6473 46.2031 24.7793 46.2152 24.9301C46.2277 25.0809 46.3596 25.1933 46.5105 25.1812L46.4664 24.6352ZM47.1359 25.1311C47.2867 25.1189 47.3991 24.987 47.387 24.8362C47.3746 24.6854 47.2426 24.5729 47.0918 24.5851L47.1359 25.1311ZM48.343 24.4848C48.1922 24.4969 48.0801 24.6288 48.0923 24.7796C48.1044 24.9304 48.2367 25.0429 48.3871 25.0307L48.343 24.4848ZM49.0129 24.9806C49.1637 24.9688 49.2758 24.8365 49.2637 24.6857C49.2516 24.5352 49.1193 24.4228 48.9688 24.4346L49.0129 24.9806ZM50.2201 24.3346C50.0693 24.3464 49.9568 24.4787 49.9689 24.6295C49.9814 24.78 50.1134 24.8924 50.2642 24.8806L50.2201 24.3346ZM50.7984 24.9388C50.9435 24.9813 51.0956 24.8981 51.1377 24.7527C51.1801 24.6076 51.0966 24.4555 50.9516 24.4131L50.7984 24.9388ZM52.2317 24.787C52.0867 24.7446 51.9345 24.8281 51.8921 24.9732C51.85 25.1183 51.9332 25.2704 52.0786 25.3128L52.2317 24.787ZM52.7185 25.5C52.8639 25.5424 53.0157 25.4593 53.0582 25.3138C53.1006 25.1688 53.0171 25.0166 52.872 24.9742L52.7185 25.5ZM54.1522 25.3485C54.0068 25.3061 53.855 25.3892 53.8125 25.5343C53.7701 25.6797 53.8536 25.8315 53.999 25.8743L54.1522 25.3485ZM54.639 26.0611C54.7844 26.1035 54.9362 26.0204 54.9786 25.8753C55.0207 25.7299 54.9375 25.5777 54.7921 25.5353L54.639 26.0611ZM56.0723 25.9096C55.9272 25.8672 55.7751 25.9504 55.733 26.0955C55.6906 26.2409 55.7741 26.393 55.9191 26.4354L56.0723 25.9096ZM56.5594 26.6223C56.7045 26.6647 56.8566 26.5815 56.8991 26.4364C56.9411 26.291 56.8577 26.1392 56.7126 26.0968L56.5594 26.6223ZM57.9928 26.4708C57.8477 26.4284 57.6955 26.5115 57.6534 26.6569C57.611 26.802 57.6945 26.9542 57.8396 26.9966L57.9928 26.4708ZM58.6411 26.7044C58.7229 26.5775 58.6862 26.4078 58.559 26.326C58.4317 26.2439 58.2624 26.2806 58.1806 26.4078L58.6411 26.7044ZM58.8784 25.3236C58.7966 25.4508 58.8333 25.6202 58.9606 25.7023C59.0878 25.7841 59.2571 25.7474 59.3389 25.6205L58.8784 25.3236ZM59.688 25.0782C59.7698 24.9513 59.7331 24.7816 59.6059 24.6998C59.4786 24.6177 59.3093 24.6544 59.2275 24.7813L59.688 25.0782ZM59.9253 23.6974C59.8435 23.8243 59.8802 23.994 60.0075 24.0758C60.1347 24.1579 60.304 24.1212 60.3858 23.994L59.9253 23.6974ZM60.7931 23.6712C60.9315 23.6106 60.9948 23.449 60.9339 23.3103C60.8733 23.172 60.7117 23.1087 60.5733 23.1693L60.7931 23.6712ZM61.9851 22.5512C61.8464 22.6118 61.7835 22.7734 61.8441 22.9121C61.905 23.0504 62.0666 23.1137 62.205 23.0531L61.9851 22.5512ZM62.9109 22.7441C63.0495 22.6835 63.1125 22.522 63.0519 22.3836C62.991 22.2449 62.8294 22.1816 62.691 22.2422L62.9109 22.7441ZM64.1028 21.6245C63.9645 21.6851 63.9012 21.8467 63.9621 21.9851C64.0227 22.1237 64.1843 22.187 64.3227 22.1264L64.1028 21.6245ZM65.0289 21.8174C65.1673 21.7568 65.2302 21.5953 65.1696 21.4566C65.1087 21.3182 64.9474 21.2549 64.8088 21.3155L65.0289 21.8174ZM66.2206 20.6975C66.0822 20.7581 66.0193 20.9197 66.0798 21.0584C66.1404 21.1967 66.302 21.26 66.4407 21.1994L66.2206 20.6975ZM66.3283 21.0371C66.2862 21.1822 66.37 21.3344 66.5151 21.3765C66.6605 21.4185 66.8123 21.3351 66.8544 21.1896L66.3283 21.0371ZM66.4851 22.4671C66.5269 22.322 66.4434 22.1699 66.298 22.1278C66.1526 22.0857 66.0007 22.1692 65.959 22.3146L66.4851 22.4671ZM65.7742 22.9535C65.7321 23.0986 65.8159 23.2507 65.9614 23.2928C66.1064 23.3349 66.2583 23.2511 66.3003 23.106L65.7742 22.9535ZM65.9311 24.3834C65.9731 24.238 65.8893 24.0862 65.7439 24.0441C65.5988 24.002 65.447 24.0855 65.4049 24.2309L65.9311 24.3834ZM65.2201 24.8695C65.178 25.0149 65.2618 25.1667 65.4073 25.2088C65.5524 25.2512 65.7042 25.1674 65.7463 25.0223L65.2201 24.8695ZM65.377 26.2998C65.4191 26.1544 65.3352 26.0025 65.1898 25.9605C65.0447 25.9184 64.8929 26.0019 64.8508 26.1473L65.377 26.2998ZM64.666 26.7858C64.6243 26.9313 64.7078 27.0831 64.8532 27.1252C64.9986 27.1672 65.1504 27.0838 65.1922 26.9383L64.666 26.7858ZM64.8229 28.2161C64.865 28.0707 64.7811 27.9189 64.6361 27.8768C64.4906 27.8344 64.3388 27.9182 64.2967 28.0633L64.8229 28.2161ZM64.5576 28.9032C64.6711 29.0035 64.8441 28.9924 64.9441 28.8789C65.0441 28.7655 65.0329 28.5925 64.9195 28.4925L64.5576 28.9032ZM66.0034 29.4478C65.89 29.3478 65.717 29.3586 65.617 29.472C65.517 29.5855 65.5281 29.7585 65.6416 29.8588L66.0034 29.4478ZM66.1835 30.3365C66.2973 30.4364 66.4703 30.4257 66.5703 30.3122C66.6703 30.1988 66.6592 30.0258 66.5457 29.9254L66.1835 30.3365ZM67.6297 30.8811C67.5162 30.7808 67.3432 30.7919 67.2432 30.9053C67.1432 31.0188 67.1544 31.1918 67.2678 31.2918L67.6297 30.8811ZM67.8098 31.7694C67.9232 31.8694 68.0962 31.8586 68.1962 31.7452C68.2962 31.6317 68.2851 31.4587 68.1716 31.3588L67.8098 31.7694ZM69.2556 32.3141C69.1421 32.2141 68.9691 32.2249 68.8691 32.3383C68.7691 32.4517 68.7803 32.6248 68.8937 32.7247L69.2556 32.3141ZM69.4357 33.2024C69.5494 33.3027 69.7225 33.2916 69.8224 33.1782C69.9221 33.0647 69.9113 32.8917 69.7979 32.7917L69.4357 33.2024ZM70.8818 33.747C70.7684 33.6471 70.5953 33.6578 70.4954 33.7713C70.3954 33.8847 70.4062 34.0577 70.5199 34.158L70.8818 33.747ZM71.2807 34.4879C71.4315 34.4984 71.5625 34.3849 71.5732 34.2341C71.5837 34.083 71.4699 33.952 71.3191 33.9416L71.2807 34.4879ZM72.6313 34.0345C72.4804 34.0237 72.3495 34.1375 72.3391 34.2883C72.3286 34.4391 72.4424 34.5701 72.5932 34.5808L72.6313 34.0345ZM73.2493 34.6273C73.4001 34.6381 73.5311 34.5243 73.5415 34.3735C73.5523 34.2227 73.4385 34.0917 73.2877 34.081L73.2493 34.6273ZM74.5998 34.1739C74.449 34.1631 74.3181 34.2769 74.3076 34.4277C74.2972 34.5788 74.4107 34.7097 74.5618 34.7202L74.5998 34.1739ZM75.2179 34.767C75.3687 34.7774 75.4996 34.664 75.5101 34.5128C75.5208 34.362 75.4071 34.2311 75.2559 34.2203L75.2179 34.767ZM76.5684 34.3136C76.4176 34.3028 76.2867 34.4162 76.2762 34.5674C76.2655 34.7182 76.3792 34.8491 76.5301 34.8599L76.5684 34.3136ZM77.1865 34.9063C77.3373 34.9171 77.4682 34.8033 77.4787 34.6525C77.4891 34.5017 77.3757 34.3704 77.2245 34.36L77.1865 34.9063ZM78.537 34.4529C78.3862 34.4421 78.2553 34.5559 78.2448 34.7067C78.234 34.8575 78.3478 34.9885 78.4986 34.9992L78.537 34.4529ZM79.1551 35.0457C79.3059 35.0565 79.4368 34.9427 79.4473 34.7919C79.4577 34.6411 79.3439 34.5101 79.1931 34.4994L79.1551 35.0457ZM80.5056 34.5923C80.3548 34.5818 80.2238 34.6953 80.2131 34.8461C80.2026 34.9972 80.3164 35.1282 80.4672 35.1389L80.5056 34.5923ZM81.0045 35.2874C81.1405 35.354 81.3044 35.2981 81.3711 35.1625C81.4377 35.0268 81.3818 34.8626 81.2458 34.7959L81.0045 35.2874ZM82.489 35.4072C82.353 35.3406 82.1891 35.3964 82.1224 35.5321C82.0558 35.6678 82.1116 35.832 82.2476 35.8987L82.489 35.4072ZM82.8691 36.2043C83.0047 36.271 83.169 36.2151 83.2356 36.0794C83.3023 35.9438 83.2461 35.7795 83.1104 35.7129L82.8691 36.2043ZM84.3532 36.3242C84.2176 36.2572 84.0533 36.313 83.9866 36.449C83.92 36.5847 83.9762 36.749 84.1119 36.8156L84.3532 36.3242ZM84.9053 37.0139C85.0561 37.0213 85.1844 36.9045 85.1914 36.7533C85.1985 36.6025 85.0817 36.4739 84.9309 36.4669L84.9053 37.0139ZM86.4292 36.5382C86.2781 36.5312 86.1498 36.6476 86.1427 36.7988C86.1357 36.9499 86.2525 37.0782 86.4036 37.0852L86.4292 36.5382ZM87.1529 37.1209C87.3038 37.1283 87.432 37.0115 87.4391 36.8604C87.4462 36.7092 87.3293 36.581 87.1782 36.5739L87.1529 37.1209ZM88.6768 36.6453C88.5257 36.6379 88.3974 36.7547 88.3904 36.9058C88.3833 37.057 88.5001 37.1852 88.6513 37.1923L88.6768 36.6453ZM89.4003 37.228C89.5514 37.235 89.6797 37.1186 89.6867 36.9674C89.6938 36.8163 89.577 36.688 89.4258 36.681L89.4003 37.228ZM90.9245 36.7523C90.7734 36.7449 90.6451 36.8617 90.638 37.0129C90.631 37.1637 90.7478 37.2923 90.8989 37.2993L90.9245 36.7523ZM91.6479 37.335C91.799 37.3421 91.9273 37.2256 91.9344 37.0745C91.9414 36.9233 91.8246 36.7951 91.6735 36.7877L91.6479 37.335ZM93.1721 36.859C93.021 36.852 92.8927 36.9688 92.8857 37.1196C92.8786 37.2707 92.9954 37.399 93.1466 37.4064L93.1721 36.859ZM93.494 37.6167C93.5717 37.7463 93.7397 37.7888 93.8696 37.711C93.9992 37.6336 94.0413 37.4653 93.9636 37.3357L93.494 37.6167ZM94.7435 38.6377C94.6658 38.5081 94.4974 38.4657 94.3678 38.5434C94.2382 38.6209 94.1958 38.7892 94.2736 38.9188L94.7435 38.6377ZM94.8129 39.5173C94.9361 39.6048 95.1071 39.5762 95.1946 39.4526C95.2821 39.3294 95.2532 39.1584 95.1296 39.0709L94.8129 39.5173ZM96.2004 39.8313C96.0769 39.7438 95.9062 39.7728 95.8187 39.896C95.7312 40.0192 95.7601 40.1902 95.8833 40.278L96.2004 39.8313ZM96.4189 40.6584C96.5421 40.7459 96.7131 40.717 96.8006 40.5938C96.8882 40.4706 96.8592 40.2996 96.7357 40.2117L96.4189 40.6584ZM97.8065 40.9725C97.6829 40.8849 97.5123 40.9136 97.4247 41.0371C97.3372 41.1603 97.3662 41.3313 97.4894 41.4188L97.8065 40.9725ZM98.0249 41.7992C98.1481 41.8867 98.3192 41.8581 98.4067 41.7346C98.4942 41.6114 98.4652 41.4403 98.3417 41.3528L98.0249 41.7992ZM99.4125 42.1132C99.289 42.0257 99.118 42.0547 99.0304 42.1779C98.9433 42.3011 98.9722 42.4721 99.0954 42.5599L99.4125 42.1132ZM99.631 42.9403C99.7542 43.0278 99.9252 42.9989 100.013 42.8757C100.1 42.7521 100.071 42.5815 99.9477 42.4936L99.631 42.9403ZM101.019 43.2544C100.895 43.1665 100.724 43.1955 100.636 43.319C100.549 43.4422 100.578 43.6132 100.701 43.7007L101.019 43.2544ZM101.237 44.0811C101.36 44.1686 101.531 44.1397 101.619 44.0165C101.706 43.8933 101.677 43.7223 101.554 43.6347L101.237 44.0811ZM102.625 44.3952C102.501 44.3076 102.33 44.3366 102.243 44.4598C102.155 44.583 102.184 44.754 102.307 44.8418L102.625 44.3952ZM102.408 45.1323C102.385 45.2818 102.488 45.4215 102.638 45.444C102.788 45.4669 102.927 45.3639 102.949 45.2145L102.408 45.1323ZM102.73 46.673C102.752 46.5236 102.649 46.3839 102.5 46.3613C102.35 46.3388 102.211 46.4414 102.188 46.5909L102.73 46.673ZM102.078 47.3203C102.055 47.4701 102.158 47.6095 102.308 47.6324C102.458 47.6549 102.597 47.5523 102.62 47.4025L102.078 47.3203ZM102.4 48.8614C102.422 48.7119 102.319 48.5722 102.17 48.5497C102.02 48.5268 101.881 48.6298 101.858 48.7792L102.4 48.8614ZM101.748 49.5087C101.725 49.6581 101.828 49.7978 101.978 49.8204C102.128 49.8433 102.267 49.7402 102.29 49.5908L101.748 49.5087ZM102.07 51.0497C102.092 50.8999 101.989 50.7605 101.84 50.7376C101.69 50.7151 101.551 50.8178 101.528 50.9675L102.07 51.0497ZM101.418 51.6967C101.396 51.8465 101.499 51.9858 101.648 52.0087C101.798 52.0313 101.937 51.9286 101.96 51.7788L101.418 51.6967ZM101.74 53.2377C101.762 53.0882 101.659 52.9485 101.51 52.926C101.361 52.9031 101.221 53.0061 101.198 53.1555L101.74 53.2377ZM101.617 53.9375C101.757 53.9937 101.917 53.9254 101.973 53.785C102.029 53.6443 101.96 53.4851 101.82 53.4289L101.617 53.9375ZM103.037 53.9156C102.896 53.8594 102.737 53.9277 102.681 54.0681C102.625 54.2085 102.693 54.368 102.834 54.4242L103.037 53.9156ZM103.442 54.6676C103.582 54.7238 103.742 54.6555 103.798 54.5151C103.854 54.3748 103.785 54.2155 103.645 54.1593L103.442 54.6676ZM104.862 54.6461C104.721 54.5899 104.562 54.6582 104.506 54.7986C104.45 54.9389 104.518 55.0985 104.658 55.1547L104.862 54.6461ZM104.961 55.4967C105.018 55.6371 105.177 55.7051 105.318 55.6482C105.458 55.5916 105.525 55.4321 105.469 55.292L104.961 55.4967ZM106.071 56.7809C106.014 56.6405 105.854 56.5729 105.714 56.6294C105.574 56.686 105.506 56.8455 105.563 56.9859L106.071 56.7809ZM105.551 57.4043C105.471 57.5325 105.51 57.7015 105.638 57.782C105.766 57.8621 105.935 57.8234 106.015 57.6951L105.551 57.4043ZM105.28 58.8716C105.36 58.7437 105.321 58.5744 105.193 58.4943C105.064 58.4138 104.895 58.4528 104.815 58.5811L105.28 58.8716ZM104.447 59.1692C104.367 59.2974 104.406 59.4664 104.535 59.5468C104.663 59.627 104.832 59.5882 104.912 59.46L104.447 59.1692ZM104.176 60.6365C104.257 60.5082 104.218 60.3392 104.089 60.2591C103.961 60.1787 103.792 60.2177 103.712 60.3456L104.176 60.6365ZM103.344 60.934C103.264 61.0623 103.303 61.2313 103.431 61.3114C103.559 61.3918 103.728 61.3531 103.809 61.2249L103.344 60.934ZM103.073 62.4013C103.153 62.2731 103.114 62.1041 102.986 62.0236C102.858 61.9435 102.689 61.9822 102.608 62.1105L103.073 62.4013ZM102.241 62.6989C102.16 62.8271 102.199 62.9961 102.328 63.0762C102.456 63.1567 102.625 63.1176 102.705 62.9894L102.241 62.6989ZM101.969 64.1662C102.049 64.0379 102.011 63.869 101.882 63.7885C101.754 63.7084 101.585 63.7471 101.505 63.8754L101.969 64.1662ZM101.137 64.4638C101.057 64.5917 101.096 64.7607 101.224 64.8411C101.352 64.9212 101.521 64.8825 101.601 64.7543L101.137 64.4638ZM100.866 65.9307C100.946 65.8028 100.907 65.6338 100.779 65.5534C100.65 65.4733 100.481 65.512 100.401 65.6402L100.866 65.9307ZM100.195 65.7251C100.049 65.6847 99.8983 65.7702 99.8582 65.9159C99.8178 66.0617 99.9033 66.2125 100.049 66.2529L100.195 65.7251ZM98.7393 65.89C98.885 65.9304 99.0358 65.8449 99.0762 65.6991C99.1163 65.5534 99.0308 65.4026 98.885 65.3622L98.7393 65.89ZM98.2303 65.1808C98.0845 65.1404 97.9337 65.2259 97.8933 65.3716C97.8529 65.5174 97.9384 65.6682 98.0845 65.7086L98.2303 65.1808ZM96.7744 65.3457C96.9201 65.3861 97.0713 65.3006 97.1113 65.1548C97.1517 65.0091 97.0662 64.8583 96.9201 64.8179L96.7744 65.3457ZM96.2654 64.6364C96.1196 64.5961 95.9688 64.6812 95.9284 64.827C95.8884 64.9727 95.9739 65.1239 96.1196 65.1643L96.2654 64.6364ZM94.8098 64.8014C94.9556 64.8418 95.1064 64.7563 95.1465 64.6105C95.1869 64.4648 95.1014 64.314 94.9556 64.2736L94.8098 64.8014ZM94.2463 64.1484C94.0955 64.1366 93.9639 64.2497 93.9524 64.4005C93.941 64.5513 94.0541 64.6829 94.2049 64.6943L94.2463 64.1484ZM92.8867 64.5934C93.0375 64.6048 93.1691 64.492 93.1806 64.3412C93.192 64.1904 93.0789 64.0588 92.9281 64.047L92.8867 64.5934ZM92.269 63.9965C92.1182 63.9851 91.9869 64.0979 91.9754 64.2487C91.964 64.3995 92.0768 64.5311 92.2276 64.5425L92.269 63.9965ZM90.9097 64.4416C91.0605 64.453 91.1921 64.3402 91.2032 64.1894C91.2147 64.0386 91.1019 63.907 90.9511 63.8952L90.9097 64.4416ZM90.292 63.8447C90.1412 63.8333 90.0096 63.946 89.9981 64.0969C89.9867 64.2477 90.0998 64.3793 90.2506 64.3911L90.292 63.8447ZM88.9324 64.2897C89.0832 64.3012 89.2148 64.1884 89.2262 64.0376C89.2377 63.8868 89.1246 63.7552 88.9738 63.7434L88.9324 64.2897ZM88.315 63.6929C88.1642 63.6815 88.0326 63.7942 88.0211 63.945C88.0097 64.0958 88.1224 64.2275 88.2732 64.2392L88.315 63.6929ZM86.9553 64.1379C87.1062 64.1494 87.2378 64.0366 87.2492 63.8858C87.2607 63.735 87.1476 63.6034 86.9968 63.5919L86.9553 64.1379ZM86.3376 63.5411C86.1868 63.5297 86.0552 63.6424 86.0438 63.7932C86.0323 63.944 86.1454 64.0756 86.2962 64.0874L86.3376 63.5411ZM84.978 63.9861C85.1288 63.9979 85.2604 63.8848 85.2719 63.734C85.2833 63.5832 85.1702 63.4516 85.0194 63.4401L84.978 63.9861ZM84.3606 63.3893C84.2098 63.3778 84.0782 63.4906 84.0668 63.6414C84.0553 63.7922 84.1684 63.9242 84.3192 63.9356L84.3606 63.3893ZM83.001 63.8343C83.1518 63.8461 83.2834 63.733 83.2949 63.5822C83.3063 63.4314 83.1932 63.2997 83.0424 63.2883L83.001 63.8343ZM82.9919 63.2119C83.0034 63.0611 82.8906 62.9295 82.7398 62.9177C82.589 62.9059 82.4574 63.0187 82.4456 63.1695L82.9919 63.2119ZM82.5523 61.7883C82.5405 61.9392 82.6533 62.0711 82.8041 62.0826C82.9549 62.0943 83.0865 61.9819 83.0983 61.8311L82.5523 61.7883ZM83.1515 61.1404C83.1629 60.9896 83.0502 60.858 82.8993 60.8462C82.7485 60.8344 82.6169 60.9472 82.6055 61.098L83.1515 61.1404ZM82.7118 59.7168C82.7001 59.8676 82.8132 59.9992 82.9636 60.011C83.1144 60.0228 83.2464 59.91 83.2579 59.7592L82.7118 59.7168ZM82.7294 59.0965C82.5785 59.0847 82.4469 59.1978 82.4355 59.3486C82.424 59.4994 82.5371 59.631 82.6879 59.6424L82.7294 59.0965ZM81.4768 59.5495C81.6276 59.5613 81.7592 59.4482 81.7706 59.2974C81.7821 59.1466 81.669 59.015 81.5182 59.0035L81.4768 59.5495ZM80.9126 58.9571C80.7618 58.9453 80.6301 59.0581 80.6187 59.2092C80.6073 59.36 80.7204 59.4916 80.8712 59.5031L80.9126 58.9571ZM79.66 59.4102C79.8108 59.4216 79.9421 59.3089 79.9535 59.158C79.965 59.0072 79.8522 58.8756 79.7014 58.8638L79.66 59.4102ZM79.0958 58.8174C78.945 58.806 78.8134 58.9187 78.8019 59.0695C78.7905 59.2203 78.9033 59.3519 79.0544 59.3637L79.0958 58.8174ZM77.8429 59.2708C77.9937 59.2823 78.1253 59.1695 78.1368 59.0187C78.1482 58.8679 78.0351 58.7359 77.8843 58.7245L77.8429 59.2708ZM77.0845 59.0662C76.9781 59.1739 76.9791 59.3472 77.0865 59.4536C77.1942 59.56 77.3676 59.5593 77.474 59.4519L77.0845 59.0662ZM76.3469 60.5907C76.4533 60.483 76.4523 60.3096 76.3449 60.2032C76.2372 60.0969 76.0638 60.0975 75.9575 60.2053L76.3469 60.5907ZM75.3939 60.7745C75.2876 60.8819 75.2886 61.0552 75.3963 61.1619C75.5037 61.2683 75.677 61.2676 75.7834 61.1599L75.3939 60.7745ZM74.6564 62.2987C74.7628 62.1913 74.7618 62.0179 74.6544 61.9116C74.5467 61.8052 74.3733 61.8059 74.2669 61.9132L74.6564 62.2987ZM74.1531 61.9499C74.0521 61.8372 73.8791 61.8274 73.7664 61.9284C73.6536 62.029 73.6442 62.2024 73.7452 62.3152L74.1531 61.9499ZM72.8211 61.2821C72.9221 61.3948 73.0951 61.4046 73.2079 61.304C73.3207 61.203 73.3301 61.03 73.2294 60.9172L72.8211 61.2821ZM72.7673 60.4008C72.6666 60.2881 72.4932 60.2783 72.3808 60.379C72.268 60.4799 72.2583 60.653 72.3593 60.7657L72.7673 60.4008ZM71.4356 59.733C71.5365 59.8458 71.7096 59.8555 71.8223 59.7545C71.9348 59.6539 71.9445 59.4809 71.8435 59.3681L71.4356 59.733ZM71.3817 58.8517C71.2807 58.7386 71.1077 58.7292 70.9949 58.8298C70.8825 58.9305 70.8727 59.1039 70.9737 59.2166L71.3817 58.8517ZM70.0497 58.1839C70.1507 58.2967 70.3237 58.3061 70.4365 58.2054C70.5492 58.1048 70.5587 57.9314 70.458 57.8187L70.0497 58.1839ZM69.9962 57.3023C69.8952 57.1895 69.7221 57.1798 69.6094 57.2808C69.4966 57.3814 69.4872 57.5544 69.5878 57.6672L69.9962 57.3023ZM68.6641 56.6344C68.7651 56.7472 68.9381 56.757 69.0509 56.6563C69.1637 56.5553 69.1731 56.3823 69.0721 56.2696L68.6641 56.6344ZM68.6103 55.7532C68.5096 55.6404 68.3362 55.6307 68.2235 55.7313C68.111 55.8323 68.1013 56.0053 68.2023 56.1181L68.6103 55.7532ZM67.2786 55.0854C67.3792 55.1981 67.5526 55.2079 67.665 55.1069C67.7778 55.0062 67.7875 54.8329 67.6866 54.7201L67.2786 55.0854ZM67.2247 54.2038C67.1237 54.091 66.9507 54.0812 66.8379 54.1822C66.7252 54.2829 66.7157 54.4559 66.8167 54.569L67.2247 54.2038ZM65.8927 53.5359C65.9937 53.6487 66.1667 53.6584 66.2795 53.5578C66.3922 53.4568 66.4017 53.2838 66.301 53.171L65.8927 53.5359ZM65.8799 52.7011C65.7786 52.5883 65.6055 52.5793 65.4931 52.6802C65.3807 52.7812 65.3713 52.9542 65.4726 53.067L65.8799 52.7011ZM64.7135 52.2214C64.8145 52.3342 64.9875 52.3436 65.0999 52.2426C65.2127 52.1417 65.2218 51.9683 65.1208 51.8559L64.7135 52.2214ZM64.7411 51.4331C64.6401 51.3207 64.4671 51.3112 64.3543 51.4122C64.2419 51.5132 64.2328 51.6862 64.3338 51.799L64.7411 51.4331ZM63.5747 50.9538C63.6757 51.0662 63.849 51.0756 63.9615 50.9746C64.0739 50.8736 64.0833 50.7003 63.982 50.5878L63.5747 50.9538ZM63.1926 50.3458C63.0432 50.3701 62.9418 50.5108 62.9661 50.6599C62.9906 50.8093 63.131 50.911 63.2805 50.8868L63.1926 50.3458ZM61.872 51.1143C62.0212 51.0904 62.1225 50.9497 62.0982 50.8002C62.074 50.6511 61.9333 50.5495 61.7842 50.5737L61.872 51.1143ZM61.0799 50.6875C60.9305 50.7117 60.8292 50.8521 60.8534 51.0015C60.8776 51.151 61.0183 51.2523 61.1678 51.2281L61.0799 50.6875ZM59.7594 51.456C59.9085 51.4317 60.0098 51.291 59.9856 51.1419C59.9613 50.9925 59.8206 50.8911 59.6715 50.915L59.7594 51.456ZM58.9669 51.0292C58.8178 51.0531 58.7165 51.1937 58.7407 51.3432C58.765 51.4923 58.9057 51.594 59.0548 51.5697L58.9669 51.0292ZM57.6464 51.7973C57.7958 51.7734 57.8972 51.6327 57.8729 51.4832C57.8487 51.3341 57.708 51.2325 57.5585 51.2567L57.6464 51.7973ZM57.1643 51.1975C57.0384 51.1136 56.8684 51.1476 56.7846 51.2735C56.7008 51.3991 56.7351 51.5694 56.861 51.6532L57.1643 51.1975ZM55.9101 51.0191C56.0359 51.1029 56.2059 51.0689 56.2898 50.9433C56.3736 50.8174 56.3393 50.6474 56.2134 50.5633L55.9101 51.0191ZM55.738 50.2462C55.6121 50.1624 55.4421 50.1964 55.3583 50.3219C55.2745 50.4478 55.3085 50.6178 55.4344 50.702L55.738 50.2462ZM54.4834 50.0678C54.6093 50.1516 54.7793 50.1176 54.8631 49.992C54.947 49.8661 54.913 49.6962 54.7871 49.612L54.4834 50.0678ZM54.0027 49.5501C53.8634 49.6086 53.7981 49.7692 53.8566 49.9086C53.9152 50.0483 54.0761 50.1136 54.2155 50.055L54.0027 49.5501ZM53.0615 50.5401C53.2009 50.4815 53.2665 50.3209 53.2076 50.1816C53.1491 50.0422 52.9885 49.9766 52.8491 50.0351L53.0615 50.5401ZM52.2442 50.2563C52.1001 50.3021 52.0207 50.4562 52.0668 50.6003C52.1126 50.7444 52.2668 50.8242 52.4108 50.778L52.2442 50.2563ZM51.0536 51.2109C51.1976 51.1648 51.2771 51.011 51.231 50.8669C51.1848 50.7228 51.0307 50.6431 50.8866 50.6892L51.0536 51.2109ZM50.208 50.9053C50.0639 50.9514 49.9844 51.1056 50.0305 51.2496C50.0767 51.3937 50.2305 51.4731 50.3746 51.4274L50.208 50.9053ZM49.0173 51.8602C49.1614 51.8141 49.2408 51.6603 49.1947 51.5159C49.1486 51.3718 48.9944 51.2924 48.8503 51.3382L49.0173 51.8602ZM48.1717 51.5546C48.0276 51.6007 47.9482 51.7546 47.9943 51.899C48.0404 52.043 48.1946 52.1225 48.3387 52.0767L48.1717 51.5546ZM46.9811 52.5092C47.1251 52.4635 47.2046 52.3093 47.1585 52.1652C47.1123 52.0212 46.9585 51.9417 46.8144 51.9875L46.9811 52.5092ZM46.4734 52.7587C46.5485 52.89 46.7158 52.9354 46.8471 52.8603C46.9784 52.7849 47.0235 52.6176 46.9484 52.4864L46.4734 52.7587ZM47.5584 53.5501C47.483 53.4188 47.3157 53.3733 47.1844 53.4484C47.0531 53.5235 47.008 53.6908 47.0831 53.822L47.5584 53.5501ZM47.388 54.3539C47.4634 54.4852 47.6307 54.5306 47.762 54.4555C47.893 54.3801 47.9384 54.2128 47.8634 54.0816L47.388 54.3539ZM48.473 55.1453C48.3979 55.014 48.2303 54.9685 48.0993 55.0436C47.968 55.1187 47.9226 55.286 47.998 55.4173L48.473 55.1453ZM48.1828 55.9922C48.2074 56.1416 48.3478 56.243 48.4972 56.2191C48.6463 56.1948 48.7477 56.0541 48.7234 55.9047L48.1828 55.9922ZM48.9843 57.5103C48.9601 57.3612 48.8194 57.2595 48.6702 57.2838C48.5208 57.308 48.4195 57.4484 48.444 57.5978L48.9843 57.5103ZM48.5743 58.4007C48.5985 58.5498 48.7393 58.6514 48.8887 58.6272C49.0378 58.6033 49.1392 58.4626 49.1149 58.3131L48.5743 58.4007ZM49.3758 59.9188C49.3516 59.7693 49.2109 59.668 49.0617 59.6923C48.9123 59.7162 48.811 59.8569 48.8352 60.0063L49.3758 59.9188ZM49.1745 60.8246C49.2654 60.9455 49.4371 60.97 49.5579 60.8792C49.6788 60.7886 49.703 60.6169 49.6121 60.4958L49.1745 60.8246ZM50.5025 61.681C50.4116 61.5601 50.2399 61.5356 50.1191 61.6264C49.9982 61.717 49.9737 61.8887 50.0645 62.0098L50.5025 61.681ZM50.5096 62.6023C50.6005 62.7235 50.7721 62.748 50.8933 62.6572C51.0142 62.5663 51.0384 62.3946 50.9475 62.2738L50.5096 62.6023ZM51.8379 63.459C51.747 63.3378 51.5753 63.3136 51.4541 63.4041C51.3333 63.495 51.3091 63.6667 51.3999 63.7875L51.8379 63.459ZM51.845 64.3803C51.9359 64.5011 52.1075 64.5257 52.2284 64.4348C52.3492 64.3443 52.3738 64.1726 52.2829 64.0514L51.845 64.3803ZM53.173 65.2366C53.0821 65.1158 52.9104 65.0912 52.7895 65.1821C52.6687 65.2726 52.6444 65.4443 52.7353 65.5655L53.173 65.2366ZM52.8118 65.6059C52.6845 65.6877 52.6478 65.857 52.7296 65.9842C52.8114 66.1118 52.9807 66.1489 53.108 66.0671L52.8118 65.6059ZM52.2408 66.6235C52.3681 66.542 52.4051 66.3724 52.3233 66.2451C52.2415 66.1179 52.0718 66.0809 51.9449 66.1623L52.2408 66.6235ZM51.5114 66.4407C51.3841 66.5225 51.3471 66.6918 51.4289 66.8191C51.5107 66.9463 51.68 66.9833 51.8073 66.9019L51.5114 66.4407ZM50.9401 67.4583C51.0674 67.3765 51.1044 67.2072 51.0226 67.0799C50.9408 66.9527 50.7715 66.9157 50.6442 66.9971L50.9401 67.4583ZM50.2743 67.7097C50.2628 67.8605 50.3756 67.9922 50.5264 68.0039C50.6772 68.0157 50.8088 67.903 50.8203 67.7522L50.2743 67.7097ZM50.7082 69.2083C50.72 69.0575 50.6069 68.9256 50.456 68.9141C50.3056 68.9024 50.1736 69.0151 50.1622 69.1659L50.7082 69.2083ZM50.106 69.8937C50.0945 70.0445 50.2073 70.1764 50.3581 70.1882C50.5089 70.2 50.6405 70.0872 50.652 69.9364L50.106 69.8937ZM50.5399 71.3926C50.5516 71.2418 50.4385 71.1099 50.2877 71.0981C50.1373 71.0863 50.0053 71.1991 49.9939 71.3499L50.5399 71.3926ZM49.9376 72.078C49.9262 72.2288 50.039 72.3607 50.1898 72.3722C50.3406 72.384 50.4722 72.2715 50.4837 72.1207L49.9376 72.078ZM50.3716 73.5766C50.3833 73.4258 50.2702 73.2942 50.1198 73.2824C49.9689 73.2706 49.837 73.3834 49.8255 73.5342L50.3716 73.5766ZM50.4288 74.0835C50.5715 74.033 50.6462 73.8765 50.5957 73.7341C50.5452 73.5914 50.3887 73.5167 50.2463 73.5668L50.4288 74.0835ZM51.3144 73.1898C51.172 73.24 51.0973 73.3965 51.1478 73.5392C51.198 73.6819 51.3545 73.7567 51.4972 73.7062L51.3144 73.1898ZM52.0315 73.5177C52.1738 73.4675 52.2486 73.311 52.1981 73.1683C52.1476 73.0259 51.9911 72.9508 51.8487 73.0013L52.0315 73.5177ZM52.9168 72.6243C52.7744 72.6745 52.6997 72.831 52.7501 72.9737C52.8006 73.1161 52.9572 73.1912 53.0996 73.1407L52.9168 72.6243ZM53.3116 73.2063C53.42 73.3123 53.5934 73.3103 53.6991 73.2019C53.8048 73.0939 53.8024 72.9205 53.6944 72.8148L53.3116 73.2063ZM54.6053 73.7045C54.4969 73.5988 54.3235 73.6008 54.2178 73.7089C54.1125 73.8169 54.1145 73.9906 54.2229 74.0963L54.6053 73.7045ZM54.6783 74.541C54.7864 74.6467 54.9598 74.6447 55.0655 74.5366C55.1712 74.4286 55.1688 74.2552 55.0607 74.1495L54.6783 74.541ZM55.9717 75.0392C55.8633 74.9335 55.6899 74.9352 55.5845 75.0436C55.4788 75.1516 55.4809 75.325 55.5892 75.4307L55.9717 75.0392ZM56.0447 75.8757C56.1528 75.9814 56.3261 75.9793 56.4318 75.8713C56.5375 75.7632 56.5355 75.5895 56.4271 75.4838L56.0447 75.8757ZM57.338 76.3739C57.2296 76.2678 57.0563 76.2698 56.9509 76.3782C56.8452 76.4863 56.8472 76.6596 56.9556 76.7653L57.338 76.3739ZM57.4111 77.2103C57.5191 77.316 57.6925 77.314 57.7982 77.206C57.9039 77.0976 57.9019 76.9242 57.7935 76.8185L57.4111 77.2103ZM58.7044 77.7082C58.5963 77.6025 58.423 77.6045 58.3173 77.7126C58.2116 77.821 58.2136 77.9943 58.322 78.1L58.7044 77.7082ZM58.7774 78.545C58.8855 78.6507 59.0592 78.6487 59.1646 78.5403C59.2702 78.4323 59.2682 78.2589 59.1598 78.1532L58.7774 78.545ZM60.0707 79.0429C59.9627 78.9372 59.7893 78.9392 59.6836 79.0472C59.5779 79.1556 59.5799 79.329 59.6883 79.4347L60.0707 79.0429ZM60.1438 79.8794C60.2522 79.9851 60.4256 79.9834 60.5309 79.875C60.6366 79.7669 60.6346 79.5936 60.5262 79.4879L60.1438 79.8794ZM61.4371 80.3775C61.329 80.2718 61.1557 80.2739 61.05 80.3819C60.9443 80.49 60.9463 80.6633 61.0547 80.7694L61.4371 80.3775ZM61.1755 81.1006C61.1638 81.2514 61.2769 81.383 61.4277 81.3948C61.5785 81.4066 61.7101 81.2938 61.7216 81.143L61.1755 81.1006ZM61.6212 82.447C61.6327 82.2962 61.5199 82.1646 61.3691 82.1528C61.2183 82.1411 61.0867 82.2538 61.0749 82.4046L61.6212 82.447ZM61.0247 83.0567C61.0133 83.2075 61.1261 83.3391 61.2769 83.3509C61.4277 83.3626 61.5593 83.2499 61.5707 83.0991L61.0247 83.0567ZM61.4704 84.4031C61.4822 84.2523 61.3691 84.1204 61.2183 84.1086C61.0675 84.0971 60.9359 84.2096 60.9244 84.3604L61.4704 84.4031ZM61.3375 85.0949C61.4728 85.1618 61.6371 85.1063 61.7041 84.971C61.771 84.8353 61.7155 84.6711 61.5798 84.6037L61.3375 85.0949ZM62.725 85.1703C62.5894 85.1033 62.4251 85.1588 62.3581 85.2941C62.2911 85.4298 62.347 85.5941 62.4823 85.661L62.725 85.1703ZM63.0549 85.9445C63.1906 86.0115 63.3549 85.9559 63.4219 85.8203C63.4888 85.6846 63.433 85.5203 63.2976 85.4533L63.0549 85.9445ZM64.4425 86.0199C64.3068 85.9526 64.1429 86.0081 64.0759 86.1437C64.0089 86.2794 64.0645 86.4437 64.2001 86.5107L64.4425 86.0199ZM64.7727 86.7937C64.9084 86.8611 65.0727 86.8055 65.1397 86.6699C65.2063 86.5342 65.1508 86.3699 65.0151 86.303L64.7727 86.7937ZM66.1603 86.8691C66.0246 86.8022 65.8604 86.8577 65.7934 86.9934C65.7267 87.129 65.7823 87.2933 65.9179 87.3603L66.1603 86.8691ZM65.9694 87.4798C65.9247 87.6242 66.0055 87.7777 66.1499 87.8224C66.2943 87.8672 66.4478 87.7868 66.4925 87.6423L65.9694 87.4798ZM66.1149 88.8606C66.1596 88.7162 66.0788 88.5627 65.9344 88.5179C65.79 88.4728 65.6365 88.5536 65.5917 88.698L66.1149 88.8606ZM65.4029 89.3073C65.3581 89.4517 65.4389 89.6052 65.5833 89.6499C65.7277 89.695 65.8812 89.6142 65.926 89.4698L65.4029 89.3073ZM65.5483 90.6884C65.5931 90.5436 65.5123 90.3901 65.3679 90.3454C65.2235 90.3006 65.07 90.381 65.0252 90.5255L65.5483 90.6884ZM64.8364 91.1347C64.7916 91.2791 64.8724 91.4326 65.0168 91.4777C65.1612 91.5225 65.3147 91.4417 65.3595 91.2973L64.8364 91.1347ZM64.9818 92.5159C65.0266 92.3714 64.9458 92.218 64.8013 92.1728C64.6566 92.1281 64.5034 92.2089 64.4587 92.3533L64.9818 92.5159ZM64.2698 92.9622C64.225 93.1069 64.3058 93.2604 64.4502 93.3052C64.5947 93.35 64.7482 93.2695 64.7929 93.1251L64.2698 92.9622ZM64.4152 94.3433C64.46 94.1989 64.3792 94.0454 64.2348 94.0007C64.0901 93.9556 63.9369 94.0363 63.8921 94.1807L64.4152 94.3433ZM63.7033 94.79C63.6585 94.9344 63.7393 95.0879 63.8837 95.1327C64.0281 95.1778 64.1816 95.097 64.2264 94.9526L63.7033 94.79ZM63.8487 96.1708C63.8935 96.0264 63.8127 95.8729 63.6683 95.8281C63.5235 95.783 63.3703 95.8638 63.3256 96.0082L63.8487 96.1708ZM63.1367 96.6175C63.092 96.7619 63.1727 96.9154 63.3172 96.9602C63.4616 97.0053 63.6151 96.9245 63.6598 96.7801L63.1367 96.6175ZM63.2822 97.9986C63.3269 97.8542 63.2461 97.7007 63.1017 97.6556C62.957 97.6108 62.8038 97.6913 62.759 97.8357L63.2822 97.9986ZM62.5695 97.9754C62.4187 97.9875 62.3063 98.1195 62.3184 98.2703C62.3305 98.4211 62.4628 98.5335 62.6136 98.5214L62.5695 97.9754ZM61.2752 98.6284C61.426 98.6163 61.5381 98.4844 61.526 98.3336C61.5139 98.1828 61.3819 98.0703 61.2311 98.0824L61.2752 98.6284ZM60.5619 98.136C60.4111 98.1481 60.2986 98.28 60.3108 98.4308C60.3229 98.5816 60.4552 98.6941 60.606 98.682L60.5619 98.136ZM59.2676 98.789C59.4184 98.7769 59.5305 98.6449 59.5183 98.4941C59.5062 98.3433 59.3743 98.2309 59.2235 98.243L59.2676 98.789ZM58.5542 98.2965C58.4034 98.3083 58.291 98.4403 58.3031 98.5911C58.3156 98.7419 58.4475 98.8543 58.5983 98.8425L58.5542 98.2965ZM57.2599 98.9492C57.4107 98.9374 57.5228 98.8051 57.5107 98.6547C57.4986 98.5039 57.3666 98.3915 57.2158 98.4032L57.2599 98.9492ZM56.5466 98.4568C56.3958 98.4689 56.2834 98.6008 56.2955 98.7516C56.3079 98.9024 56.4399 99.0149 56.5907 99.0027L56.5466 98.4568ZM55.2523 99.1098C55.4031 99.0977 55.5152 98.9657 55.5031 98.8149C55.491 98.6641 55.359 98.5517 55.2082 98.5638L55.2523 99.1098ZM54.539 98.6173C54.3882 98.6294 54.2757 98.7614 54.2879 98.9122C54.3003 99.063 54.4323 99.1754 54.5831 99.1633L54.539 98.6173ZM53.2447 99.2703C53.3955 99.2582 53.5076 99.1263 53.4954 98.9755C53.4833 98.8247 53.3514 98.7122 53.2006 98.7244L53.2447 99.2703ZM52.599 99.3464C52.5919 99.4976 52.7087 99.6258 52.8599 99.6329C53.011 99.64 53.139 99.5231 53.146 99.372L52.599 99.3464ZM53.0844 100.713C53.0912 100.562 52.9743 100.434 52.8232 100.427C52.6724 100.42 52.5441 100.536 52.5371 100.687L53.0844 100.713ZM52.5064 101.358C52.4994 101.509 52.6162 101.637 52.7673 101.644C52.9185 101.652 53.0464 101.535 53.0534 101.384L52.5064 101.358ZM52.9915 102.725C52.9986 102.574 52.8818 102.445 52.7306 102.438C52.5795 102.431 52.4516 102.548 52.4445 102.699L52.9915 102.725ZM52.4135 103.37C52.4068 103.521 52.5236 103.649 52.6747 103.656C52.8256 103.663 52.9538 103.546 52.9609 103.395L52.4135 103.37ZM52.8989 104.736C52.906 104.585 52.7892 104.457 52.6381 104.45C52.4869 104.443 52.3587 104.56 52.3519 104.711L52.8989 104.736ZM52.3209 105.381C52.3139 105.532 52.4307 105.66 52.5818 105.667C52.733 105.675 52.8612 105.558 52.868 105.407L52.3209 105.381ZM52.8064 106.748C52.8134 106.597 52.6963 106.469 52.5455 106.461C52.3943 106.454 52.2661 106.571 52.2593 106.722L52.8064 106.748ZM52.2284 107.393C52.2213 107.544 52.3381 107.672 52.4893 107.679C52.6404 107.686 52.7683 107.57 52.7754 107.418L52.2284 107.393ZM52.7138 108.76C52.7205 108.608 52.6037 108.48 52.4526 108.473C52.3018 108.466 52.1735 108.583 52.1664 108.734L52.7138 108.76ZM52.1358 109.404C52.1287 109.555 52.2455 109.684 52.3967 109.691C52.5478 109.698 52.6758 109.581 52.6828 109.43L52.1358 109.404ZM52.6209 110.771C52.628 110.62 52.5111 110.492 52.36 110.485C52.2089 110.478 52.0809 110.594 52.0739 110.745L52.6209 110.771ZM52.0429 111.416C52.0362 111.567 52.153 111.695 52.3041 111.702C52.4549 111.709 52.5832 111.592 52.5903 111.442L52.0429 111.416ZM52.5283 112.783C52.5354 112.632 52.4186 112.503 52.2674 112.496C52.1163 112.489 51.9884 112.606 51.9813 112.757L52.5283 112.783ZM51.9503 113.427C51.9436 113.578 52.0604 113.707 52.2112 113.714C52.3624 113.721 52.4906 113.604 52.4977 113.453L51.9503 113.427ZM52.4357 114.794C52.4428 114.643 52.326 114.515 52.1749 114.508C52.0237 114.5 51.8955 114.617 51.8887 114.768L52.4357 114.794ZM9.60539 9.56365L9.84847 9.82688L10.2508 9.4556L10.0078 9.19237L9.60539 9.56365ZM10.8208 10.8805L11.3069 11.4076L11.7093 11.036L11.2231 10.5092L10.8208 10.8805ZM12.2792 12.4612L12.7654 12.988L13.1677 12.6167L12.6816 12.0899L12.2792 12.4612ZM13.7377 14.0416L14.2238 14.5684L14.6262 14.1971L14.14 13.6703L13.7377 14.0416ZM15.1961 15.622L15.6823 16.1488L16.0846 15.7775L15.5985 15.2507L15.1961 15.622ZM16.6546 17.2024L16.8976 17.466L17.3 17.0947L17.0569 16.8312L16.6546 17.2024ZM17.2505 17.5084L17.4625 17.3677L17.1592 16.9113L16.9472 17.052L17.2505 17.5084ZM18.3107 16.8042L18.7347 16.5225L18.4314 16.066L18.0074 16.3478L18.3107 16.8042ZM19.5829 15.959L19.7949 15.8183L19.4916 15.3618L19.2796 15.5029L19.5829 15.959ZM19.4388 15.7722L19.6406 15.999L20.0497 15.6352L19.8478 15.4083L19.4388 15.7722ZM20.4482 16.9066L20.8518 17.36L21.2608 16.9961L20.8572 16.5423L20.4482 16.9066ZM21.6594 18.2675L21.861 18.4944L22.2701 18.1305L22.0684 17.9036L21.6594 18.2675ZM22.1031 18.5839L22.4434 18.5371L22.3683 17.9945L22.028 18.0413L22.1031 18.5839ZM23.8044 18.35L24.4847 18.2567L24.41 17.7141L23.7293 17.8073L23.8044 18.35ZM25.8457 18.0696L26.5263 17.976L26.4513 17.4334L25.771 17.5269L25.8457 18.0696ZM27.8873 17.7892L28.5676 17.6956L28.4929 17.153L27.8123 17.2465L27.8873 17.7892ZM29.929 17.5088L30.6093 17.4152L30.5342 16.8726L29.8539 16.9661L29.929 17.5088ZM31.9703 17.2284L32.6509 17.1348L32.5758 16.5922L31.8952 16.6857L31.9703 17.2284ZM34.0119 16.948L34.3519 16.9012L34.2768 16.3585L33.9368 16.405L34.0119 16.948ZM34.0758 16.7638L34.2418 17.059L34.7191 16.7908L34.5532 16.4956L34.0758 16.7638ZM34.9056 18.2395L35.2375 18.83L35.7149 18.562L35.383 17.9716L34.9056 18.2395ZM35.9017 20.0108L36.2336 20.6009L36.711 20.333L36.379 19.7425L35.9017 20.0108ZM36.8974 21.7817L37.0634 22.077L37.5407 21.8087L37.3748 21.5135L36.8974 21.7817ZM37.2829 22.216L37.6545 22.2422L37.6926 21.6959L37.3212 21.6696L37.2829 22.216ZM39.14 22.3476L39.5113 22.3738L39.5497 21.8275L39.1784 21.8013L39.14 22.3476ZM39.2575 22.0813L39.2377 22.3634L39.784 22.4021L39.8039 22.12L39.2575 22.0813ZM39.1589 23.4914L39.1192 24.0556L39.6655 24.0943L39.7052 23.5301L39.1589 23.4914ZM39.0404 25.1836L39.0205 25.4656L39.5669 25.5044L39.5867 25.2223L39.0404 25.1836ZM39.3158 25.7578L39.6288 25.7329L39.5844 25.1869L39.2717 25.2118L39.3158 25.7578ZM40.8801 25.6326L41.5055 25.5825L41.4614 25.0365L40.8356 25.0866L40.8801 25.6326ZM42.7567 25.4821L43.3825 25.432L43.3381 24.886L42.7126 24.9362L42.7567 25.4821ZM44.6338 25.3317L45.2592 25.2815L45.2151 24.7355L44.5893 24.7857L44.6338 25.3317ZM46.5105 25.1812L47.1359 25.1311L47.0918 24.5851L46.4664 24.6352L46.5105 25.1812ZM48.3871 25.0307L49.0129 24.9806L48.9688 24.4346L48.343 24.4848L48.3871 25.0307ZM50.2642 24.8806L50.5769 24.8554L50.5328 24.3094L50.2201 24.3346L50.2642 24.8806ZM50.4783 24.8453L50.7984 24.9388L50.9516 24.4131L50.6314 24.3195L50.4783 24.8453ZM52.0786 25.3128L52.7185 25.5L52.872 24.9742L52.2317 24.787L52.0786 25.3128ZM53.999 25.8743L54.639 26.0611L54.7921 25.5353L54.1522 25.3485L53.999 25.8743ZM55.9191 26.4354L56.5594 26.6223L56.7126 26.0968L56.0723 25.9096L55.9191 26.4354ZM57.8396 26.9966L58.1597 27.0901L58.3129 26.5644L57.9928 26.4708L57.8396 26.9966ZM58.4667 26.9757L58.6411 26.7044L58.1806 26.4078L58.0059 26.6788L58.4667 26.9757ZM59.3389 25.6205L59.688 25.0782L59.2275 24.7813L58.8784 25.3236L59.3389 25.6205ZM60.3858 23.994L60.5605 23.723L60.1 23.4261L59.9253 23.6974L60.3858 23.994ZM60.44 23.8257L60.7931 23.6712L60.5733 23.1693L60.2202 23.3238L60.44 23.8257ZM62.205 23.0531L62.9109 22.7441L62.691 22.2422L61.9851 22.5512L62.205 23.0531ZM64.3227 22.1264L65.0289 21.8174L64.8088 21.3155L64.1028 21.6245L64.3227 22.1264ZM66.4407 21.1994L66.7935 21.0449L66.5737 20.543L66.2206 20.6975L66.4407 21.1994ZM66.4205 20.7177L66.3283 21.0371L66.8544 21.1896L66.9467 20.8702L66.4205 20.7177ZM65.959 22.3146L65.7742 22.9535L66.3003 23.106L66.4851 22.4671L65.959 22.3146ZM65.4049 24.2309L65.2201 24.8695L65.7463 25.0223L65.9311 24.3834L65.4049 24.2309ZM64.8508 26.1473L64.666 26.7858L65.1922 26.9383L65.377 26.2998L64.8508 26.1473ZM64.2967 28.0633L64.2045 28.3827L64.7307 28.5352L64.8229 28.2161L64.2967 28.0633ZM64.2866 28.6645L64.5576 28.9032L64.9195 28.4925L64.6485 28.2538L64.2866 28.6645ZM65.6416 29.8588L66.1835 30.3365L66.5457 29.9254L66.0034 29.4478L65.6416 29.8588ZM67.2678 31.2918L67.8098 31.7694L68.1716 31.3588L67.6297 30.8811L67.2678 31.2918ZM68.8937 32.7247L69.4357 33.2024L69.7979 32.7917L69.2556 32.3141L68.8937 32.7247ZM70.5199 34.158L70.7909 34.3967L71.1528 33.986L70.8818 33.747L70.5199 34.158ZM70.9528 34.4647L71.2807 34.4879L71.3191 33.9416L70.9909 33.918L70.9528 34.4647ZM72.5932 34.5808L73.2493 34.6273L73.2877 34.081L72.6313 34.0345L72.5932 34.5808ZM74.5618 34.7202L75.2179 34.767L75.2559 34.2203L74.5998 34.1739L74.5618 34.7202ZM76.5301 34.8599L77.1865 34.9063L77.2245 34.36L76.5684 34.3136L76.5301 34.8599ZM78.4986 34.9992L79.1551 35.0457L79.1931 34.4994L78.537 34.4529L78.4986 34.9992ZM80.4672 35.1389L80.7954 35.1622L80.8335 34.6155L80.5056 34.5923L80.4672 35.1389ZM80.6938 35.1346L81.0045 35.2874L81.2458 34.7959L80.9351 34.6431L80.6938 35.1346ZM82.2476 35.8987L82.8691 36.2043L83.1104 35.7129L82.489 35.4072L82.2476 35.8987ZM84.1119 36.8156L84.4226 36.9684L84.6639 36.477L84.3532 36.3242L84.1119 36.8156ZM84.5306 36.996L84.9053 37.0139L84.9309 36.4669L84.5562 36.449L84.5306 36.996ZM86.4036 37.0852L87.1529 37.1209L87.1782 36.5739L86.4292 36.5382L86.4036 37.0852ZM88.6513 37.1923L89.4003 37.228L89.4258 36.681L88.6768 36.6453L88.6513 37.1923ZM90.8989 37.2993L91.6479 37.335L91.6735 36.7877L90.9245 36.7523L90.8989 37.2993ZM93.1466 37.4064L93.5209 37.4242L93.5465 36.8769L93.1721 36.859L93.1466 37.4064ZM93.2991 37.2912L93.494 37.6167L93.9636 37.3357L93.7687 37.0098L93.2991 37.2912ZM94.2736 38.9188L94.4685 39.2446L94.9384 38.9632L94.7435 38.6377L94.2736 38.9188ZM94.5452 39.3271L94.8129 39.5173L95.1296 39.0709L94.862 38.8807L94.5452 39.3271ZM95.8833 40.278L96.4189 40.6584L96.7357 40.2117L96.2004 39.8313L95.8833 40.278ZM97.4894 41.4188L98.0249 41.7992L98.3417 41.3528L97.8065 40.9725L97.4894 41.4188ZM99.0954 42.5599L99.631 42.9403L99.9477 42.4936L99.4125 42.1132L99.0954 42.5599ZM100.701 43.7007L101.237 44.0811L101.554 43.6347L101.019 43.2544L100.701 43.7007ZM102.307 44.8418L102.575 45.032L102.892 44.5853L102.625 44.3952L102.307 44.8418ZM102.463 44.7674L102.408 45.1323L102.949 45.2145L103.004 44.8496L102.463 44.7674ZM102.188 46.5909L102.078 47.3203L102.62 47.4025L102.73 46.673L102.188 46.5909ZM101.858 48.7792L101.748 49.5087L102.29 49.5908L102.4 48.8614L101.858 48.7792ZM101.528 50.9675L101.418 51.6967L101.96 51.7788L102.07 51.0497L101.528 50.9675ZM101.198 53.1555L101.143 53.5204L101.685 53.6026L101.74 53.2377L101.198 53.1555ZM101.313 53.8156L101.617 53.9375L101.82 53.4289L101.516 53.307L101.313 53.8156ZM102.834 54.4242L103.442 54.6676L103.645 54.1593L103.037 53.9156L102.834 54.4242ZM104.658 55.1547L104.963 55.2762L105.166 54.7679L104.862 54.6461L104.658 55.1547ZM104.81 55.1244L104.961 55.4967L105.469 55.292L105.318 54.9197L104.81 55.1244ZM105.563 56.9859L105.713 57.3582L106.221 57.1532L106.071 56.7809L105.563 56.9859ZM105.735 57.1104L105.551 57.4043L106.015 57.6951L106.2 57.4009L105.735 57.1104ZM104.815 58.5811L104.447 59.1692L104.912 59.46L105.28 58.8716L104.815 58.5811ZM103.712 60.3456L103.344 60.934L103.809 61.2249L104.176 60.6365L103.712 60.3456ZM102.608 62.1105L102.241 62.6989L102.705 62.9894L103.073 62.4013L102.608 62.1105ZM101.505 63.8754L101.137 64.4638L101.601 64.7543L101.969 64.1662L101.505 63.8754ZM100.401 65.6402L100.217 65.9344L100.682 66.2249L100.866 65.9307L100.401 65.6402ZM100.522 65.8156L100.195 65.7251L100.049 66.2529L100.377 66.3434L100.522 65.8156ZM98.885 65.3622L98.2303 65.1808L98.0845 65.7086L98.7393 65.89L98.885 65.3622ZM96.9201 64.8179L96.2654 64.6364L96.1196 65.1643L96.7744 65.3457L96.9201 64.8179ZM94.9556 64.2736L94.6281 64.1827L94.4823 64.7105L94.8098 64.8014L94.9556 64.2736ZM94.5759 64.1736L94.2463 64.1484L94.2049 64.6943L94.5345 64.7196L94.5759 64.1736ZM92.9281 64.047L92.269 63.9965L92.2276 64.5425L92.8867 64.5934L92.9281 64.047ZM90.9511 63.8952L90.292 63.8447L90.2506 64.3911L90.9097 64.4416L90.9511 63.8952ZM88.9738 63.7434L88.315 63.6929L88.2732 64.2392L88.9324 64.2897L88.9738 63.7434ZM86.9968 63.5919L86.3376 63.5411L86.2962 64.0874L86.9553 64.1379L86.9968 63.5919ZM85.0194 63.4401L84.3606 63.3893L84.3192 63.9356L84.978 63.9861L85.0194 63.4401ZM83.0424 63.2883L82.7129 63.2631L82.6715 63.8091L83.001 63.8343L83.0424 63.2883ZM82.9653 63.5573L82.9919 63.2119L82.4456 63.1695L82.419 63.5148L82.9653 63.5573ZM83.0983 61.8311L83.1515 61.1404L82.6055 61.098L82.5523 61.7883L83.0983 61.8311ZM83.2579 59.7592L83.2844 59.4139L82.7384 59.3715L82.7118 59.7168L83.2579 59.7592ZM83.0323 59.1197L82.7294 59.0965L82.6879 59.6424L82.9906 59.6657L83.0323 59.1197ZM81.5182 59.0035L80.9126 58.9571L80.8712 59.5031L81.4768 59.5495L81.5182 59.0035ZM79.7014 58.8638L79.0958 58.8174L79.0544 59.3637L79.66 59.4102L79.7014 58.8638ZM77.8843 58.7245L77.5817 58.7013L77.5403 59.2473L77.8429 59.2708L77.8843 58.7245ZM77.3662 58.7817L77.0845 59.0662L77.474 59.4519L77.7557 59.1671L77.3662 58.7817ZM75.9575 60.2053L75.3939 60.7745L75.7834 61.1599L76.3469 60.5907L75.9575 60.2053ZM74.2669 61.9132L73.9852 62.198L74.3746 62.5834L74.6564 62.2987L74.2669 61.9132ZM74.3841 62.2081L74.1531 61.9499L73.7452 62.3152L73.9761 62.5733L74.3841 62.2081ZM73.2294 60.9172L72.7673 60.4008L72.3593 60.7657L72.8211 61.2821L73.2294 60.9172ZM71.8435 59.3681L71.3817 58.8517L70.9737 59.2166L71.4356 59.733L71.8435 59.3681ZM70.458 57.8187L69.9962 57.3023L69.5878 57.6672L70.0497 58.1839L70.458 57.8187ZM69.0721 56.2696L68.6103 55.7532L68.2023 56.1181L68.6641 56.6344L69.0721 56.2696ZM67.6866 54.7201L67.2247 54.2038L66.8167 54.569L67.2786 55.0854L67.6866 54.7201ZM66.301 53.171L66.0697 52.9128L65.6618 53.2777L65.8927 53.5359L66.301 53.171ZM66.0694 52.9125L65.8799 52.7011L65.4726 53.067L65.6621 53.2781L66.0694 52.9125ZM65.1208 51.8559L64.7411 51.4331L64.3338 51.799L64.7135 52.2214L65.1208 51.8559ZM63.982 50.5878L63.7925 50.3765L63.3848 50.7423L63.5747 50.9538L63.982 50.5878ZM63.5447 50.2889L63.1926 50.3458L63.2805 50.8868L63.6326 50.8299L63.5447 50.2889ZM61.7842 50.5737L61.0799 50.6875L61.1678 51.2281L61.872 51.1143L61.7842 50.5737ZM59.6715 50.915L58.9669 51.0292L59.0548 51.5697L59.7594 51.456L59.6715 50.915ZM57.5585 51.2567L57.2064 51.3136L57.2943 51.8542L57.6464 51.7973L57.5585 51.2567ZM57.4023 51.356L57.1643 51.1975L56.861 51.6532L57.0987 51.8118L57.4023 51.356ZM56.2134 50.5633L55.738 50.2462L55.4344 50.702L55.9101 51.0191L56.2134 50.5633ZM54.7871 49.612L54.5494 49.4535L54.2458 49.9092L54.4834 50.0678L54.7871 49.612ZM54.2912 49.4289L54.0027 49.5501L54.2155 50.055L54.5036 49.9338L54.2912 49.4289ZM52.8491 50.0351L52.5606 50.1563L52.773 50.6616L53.0615 50.5401L52.8491 50.0351ZM52.5835 50.1479L52.2442 50.2563L52.4108 50.778L52.7501 50.67L52.5835 50.1479ZM50.8866 50.6892L50.208 50.9053L50.3746 51.4274L51.0536 51.2109L50.8866 50.6892ZM48.8503 51.3382L48.1717 51.5546L48.3387 52.0767L49.0173 51.8602L48.8503 51.3382ZM46.8144 51.9875L46.4751 52.0959L46.6417 52.6176L46.9811 52.5092L46.8144 51.9875ZM46.3209 52.4927L46.4734 52.7587L46.9484 52.4864L46.7959 52.2204L46.3209 52.4927ZM47.0831 53.822L47.388 54.3539L47.8634 54.0816L47.5584 53.5501L47.0831 53.822ZM47.998 55.4173L48.1505 55.6832L48.6255 55.4112L48.473 55.1453L47.998 55.4173ZM48.1178 55.591L48.1828 55.9922L48.7234 55.9047L48.6585 55.5034L48.1178 55.591ZM48.444 57.5978L48.5743 58.4007L49.1149 58.3131L48.9843 57.5103L48.444 57.5978ZM48.8352 60.0063L48.9005 60.4076L49.4411 60.32L49.3758 59.9188L48.8352 60.0063ZM48.952 60.5284L49.1745 60.8246L49.6121 60.4958L49.3896 60.1995L48.952 60.5284ZM50.0645 62.0098L50.5096 62.6023L50.9475 62.2738L50.5025 61.681L50.0645 62.0098ZM51.3999 63.7875L51.845 64.3803L52.2829 64.0514L51.8379 63.459L51.3999 63.7875ZM52.7353 65.5655L52.9578 65.8617L53.3955 65.5332L53.173 65.2366L52.7353 65.5655ZM53.0285 65.4669L52.8118 65.6059L53.108 66.0671L53.3248 65.928L53.0285 65.4669ZM51.9449 66.1623L51.5114 66.4407L51.8073 66.9019L52.2408 66.6235L51.9449 66.1623ZM50.6442 66.9971L50.4274 67.1365L50.7233 67.5973L50.9401 67.4583L50.6442 66.9971ZM50.3025 67.3455L50.2743 67.7097L50.8203 67.7522L50.8486 67.3883L50.3025 67.3455ZM50.1622 69.1659L50.106 69.8937L50.652 69.9364L50.7082 69.2083L50.1622 69.1659ZM49.9939 71.3499L49.9376 72.078L50.4837 72.1207L50.5399 71.3926L49.9939 71.3499ZM49.8255 73.5342L49.7976 73.8981L50.3436 73.9408L50.3716 73.5766L49.8255 73.5342ZM50.1618 74.1778L50.4288 74.0835L50.2463 73.5668L49.979 73.6611L50.1618 74.1778ZM51.4972 73.7062L52.0315 73.5177L51.8487 73.0013L51.3144 73.1898L51.4972 73.7062ZM53.0996 73.1407L53.3665 73.0464L53.1841 72.5301L52.9168 72.6243L53.0996 73.1407ZM53.0841 72.9841L53.3116 73.2063L53.6944 72.8148L53.4665 72.5923L53.0841 72.9841ZM54.2229 74.0963L54.6783 74.541L55.0607 74.1495L54.6053 73.7045L54.2229 74.0963ZM55.5892 75.4307L56.0447 75.8757L56.4271 75.4838L55.9717 75.0392L55.5892 75.4307ZM56.9556 76.7653L57.4111 77.2103L57.7935 76.8185L57.338 76.3739L56.9556 76.7653ZM58.322 78.1L58.7774 78.545L59.1598 78.1532L58.7044 77.7082L58.322 78.1ZM59.6883 79.4347L60.1438 79.8794L60.5262 79.4879L60.0707 79.0429L59.6883 79.4347ZM61.0547 80.7694L61.2826 80.9915L61.665 80.6L61.4371 80.3775L61.0547 80.7694ZM61.2008 80.7744L61.1755 81.1006L61.7216 81.143L61.7468 80.8172L61.2008 80.7744ZM61.0749 82.4046L61.0247 83.0567L61.5707 83.0991L61.6212 82.447L61.0749 82.4046ZM60.9244 84.3604L60.8992 84.6865L61.4452 84.729L61.4704 84.4031L60.9244 84.3604ZM61.051 84.9531L61.3375 85.0949L61.5798 84.6037L61.2934 84.4624L61.051 84.9531ZM62.4823 85.661L63.0549 85.9445L63.2976 85.4533L62.725 85.1703L62.4823 85.661ZM64.2001 86.5107L64.7727 86.7937L65.0151 86.303L64.4425 86.0199L64.2001 86.5107ZM65.9179 87.3603L66.2041 87.502L66.4464 87.0109L66.1603 86.8691L65.9179 87.3603ZM66.0637 87.1751L65.9694 87.4798L66.4925 87.6423L66.5868 87.3377L66.0637 87.1751ZM65.5917 88.698L65.4029 89.3073L65.926 89.4698L66.1149 88.8606L65.5917 88.698ZM65.0252 90.5255L64.8364 91.1347L65.3595 91.2973L65.5483 90.6884L65.0252 90.5255ZM64.4587 92.3533L64.2698 92.9622L64.7929 93.1251L64.9818 92.5159L64.4587 92.3533ZM63.8921 94.1807L63.7033 94.79L64.2264 94.9526L64.4152 94.3433L63.8921 94.1807ZM63.3256 96.0082L63.1367 96.6175L63.6598 96.7801L63.8487 96.1708L63.3256 96.0082ZM62.759 97.8357L62.6644 98.1403L63.1876 98.3029L63.2822 97.9986L62.759 97.8357ZM62.9041 97.9488L62.5695 97.9754L62.6136 98.5214L62.9482 98.4948L62.9041 97.9488ZM61.2311 98.0824L60.5619 98.136L60.606 98.682L61.2752 98.6284L61.2311 98.0824ZM59.2235 98.243L58.5542 98.2965L58.5983 98.8425L59.2676 98.789L59.2235 98.243ZM57.2158 98.4032L56.5466 98.4568L56.5907 99.0027L57.2599 98.9492L57.2158 98.4032ZM55.2082 98.5638L54.539 98.6173L54.5831 99.1633L55.2523 99.1098L55.2082 98.5638ZM53.2006 98.7244L52.8659 98.751L52.91 99.2969L53.2447 99.2703L53.2006 98.7244ZM52.6145 99.0112L52.599 99.3464L53.146 99.372L53.1615 99.0367L52.6145 99.0112ZM52.5371 100.687L52.5064 101.358L53.0534 101.384L53.0844 100.713L52.5371 100.687ZM52.4445 102.699L52.4135 103.37L52.9609 103.395L52.9915 102.725L52.4445 102.699ZM52.3519 104.711L52.3209 105.381L52.868 105.407L52.8989 104.736L52.3519 104.711ZM52.2593 106.722L52.2284 107.393L52.7754 107.418L52.8064 106.748L52.2593 106.722ZM52.1664 108.734L52.1358 109.404L52.6828 109.43L52.7138 108.76L52.1664 108.734ZM52.0739 110.745L52.0429 111.416L52.5903 111.442L52.6209 110.771L52.0739 110.745ZM51.9813 112.757L51.9503 113.427L52.4977 113.453L52.5283 112.783L51.9813 112.757ZM51.8887 114.768L51.8732 115.104L52.4203 115.129L52.4357 114.794L51.8887 114.768Z" fill="white"/>
</g>
<defs>
<filter id="filter0_d_740_11561" x="0.467963" y="0.0391912" width="114.838" height="124.155" filterUnits="userSpaceOnUse" color-interpolation-filters="sRGB">
<feFlood flood-opacity="0" result="BackgroundImageFix"/>
<feColorMatrix in="SourceAlpha" type="matrix" values="0 0 0 0 0 0 0 0 0 0 0 0 0 0 0 0 0 0 127 0" result="hardAlpha"/>
<feOffset/>
<feGaussianBlur stdDeviation="4.53238"/>
<feColorMatrix type="matrix" values="0 0 0 0 1 0 0 0 0 1 0 0 0 0 1 0 0 0 1 0"/>
<feBlend mode="normal" in2="BackgroundImageFix" result="effect1_dropShadow_740_11561"/>
<feBlend mode="normal" in="SourceGraphic" in2="effect1_dropShadow_740_11561" result="shape"/>
</filter>
</defs>
</svg>
