<svg width="31" height="32" viewBox="0 0 31 32" fill="none" xmlns="http://www.w3.org/2000/svg">
<path d="M15.6166 0.799622C11.4802 0.799622 10.9611 0.817708 9.33643 0.891641C7.71497 0.965891 6.60819 1.22259 5.63975 1.59924C4.638 1.98826 3.78824 2.50864 2.94166 3.35554C2.09444 4.20211 1.57405 5.05186 1.18375 6.05328C0.806155 7.02203 0.549133 8.12911 0.476151 9.74992C0.403804 11.3745 0.384766 11.894 0.384766 16.0304C0.384766 20.1668 0.40317 20.6843 0.476786 22.309C0.551354 23.9304 0.808059 25.0372 1.18439 26.0056C1.57373 27.0073 2.09412 27.8571 2.94102 28.7037C3.78729 29.5509 4.63705 30.0725 5.63817 30.4615C6.60723 30.8382 7.71433 31.0949 9.33548 31.1691C10.9601 31.2431 11.4789 31.2612 15.6151 31.2612C19.7518 31.2612 20.2694 31.2431 21.894 31.1691C23.5155 31.0949 24.6235 30.8382 25.5926 30.4615C26.594 30.0725 27.4425 29.5509 28.2888 28.7037C29.136 27.8571 29.6564 27.0073 30.0467 26.0059C30.4211 25.0372 30.6781 23.9301 30.7543 22.3093C30.8273 20.6847 30.8463 20.1668 30.8463 16.0304C30.8463 11.894 30.8273 11.3749 30.7543 9.75024C30.6781 8.12879 30.4211 7.02202 30.0467 6.0536C29.6564 5.05186 29.136 4.20211 28.2888 3.35554C27.4416 2.50832 26.5943 1.98794 25.5916 1.59924C24.6207 1.22259 23.5132 0.965891 21.8918 0.891641C20.2672 0.817708 19.7499 0.799622 15.6122 0.799622H15.6166ZM14.2503 3.54433C14.6558 3.5437 15.1083 3.54433 15.6166 3.54433C19.6833 3.54433 20.1653 3.55893 21.7712 3.63191C23.2562 3.69981 24.0622 3.94795 24.5991 4.15642C25.3099 4.43248 25.8166 4.76248 26.3494 5.29555C26.8825 5.82863 27.2125 6.33632 27.4892 7.04709C27.6976 7.58334 27.9461 8.3893 28.0137 9.8743C28.0866 11.4799 28.1025 11.9622 28.1025 16.0269C28.1025 20.0916 28.0866 20.5739 28.0137 22.1795C27.9458 23.6645 27.6976 24.4705 27.4892 25.0067C27.2131 25.7175 26.8825 26.2236 26.3494 26.7563C25.8163 27.2894 25.3102 27.6194 24.5991 27.8955C24.0628 28.1049 23.2562 28.3524 21.7712 28.4203C20.1656 28.4933 19.6833 28.5092 15.6166 28.5092C11.5497 28.5092 11.0677 28.4933 9.46208 28.4203C7.97707 28.3518 7.1711 28.1036 6.63389 27.8952C5.92311 27.6191 5.41541 27.2891 4.88233 26.756C4.34925 26.2229 4.01925 25.7165 3.74255 25.0054C3.53408 24.4692 3.28562 23.6632 3.21804 22.1782C3.14505 20.5727 3.13046 20.0903 3.13046 16.0231C3.13046 11.9558 3.14505 11.4761 3.21804 9.8705C3.28594 8.3855 3.53408 7.57953 3.74255 7.04265C4.01861 6.33188 4.34925 5.82419 4.88233 5.29111C5.41541 4.75804 5.92311 4.42803 6.63389 4.15134C7.17078 3.94192 7.97707 3.69442 9.46208 3.6262C10.8671 3.56274 11.4116 3.5437 14.2503 3.54053V3.54433Z" fill="url(#paint0_radial_749_7221)"/>
<path d="M23.714 6.03586C23.3525 6.03586 22.9991 6.14307 22.6985 6.34393C22.398 6.54479 22.1637 6.83027 22.0254 7.16427C21.8871 7.49828 21.8509 7.8658 21.9215 8.22035C21.9921 8.57491 22.1662 8.90057 22.4219 9.15615C22.6775 9.41174 23.0033 9.58576 23.3579 9.65621C23.7124 9.72666 24.08 9.69037 24.4139 9.55194C24.7479 9.41351 25.0333 9.17915 25.234 8.8785C25.4348 8.57786 25.5419 8.22443 25.5417 7.86292C25.5417 6.85388 24.7231 6.03523 23.714 6.03523V6.03586Z" fill="url(#paint1_radial_749_7221)"/>
<path fill-rule="evenodd" clip-rule="evenodd" d="M15.5839 8.17134C11.2643 8.17134 7.76218 11.6735 7.76218 15.993C7.76218 20.3125 11.2643 23.813 15.5839 23.813C19.9034 23.813 23.4047 20.3125 23.4047 15.993C23.4047 11.6735 19.9034 8.17134 15.5839 8.17134ZM15.6155 21.028C18.3756 21.028 20.6131 18.7905 20.6131 16.0304C20.6131 13.2703 18.3756 11.0328 15.6155 11.0328C12.8554 11.0328 10.6179 13.2703 10.6179 16.0304C10.6179 18.7905 12.8554 21.028 15.6155 21.028Z" fill="url(#paint2_radial_749_7221)"/>
<path d="M15.6166 0.799622C11.4802 0.799622 10.9611 0.817708 9.33643 0.891641C7.71497 0.965891 6.60819 1.22259 5.63975 1.59924C4.638 1.98826 3.78824 2.50864 2.94166 3.35554C2.09444 4.20211 1.57405 5.05186 1.18375 6.05328C0.806155 7.02203 0.549133 8.12911 0.476151 9.74992C0.403804 11.3745 0.384766 11.894 0.384766 16.0304C0.384766 20.1668 0.40317 20.6843 0.476786 22.309C0.551354 23.9304 0.808059 25.0372 1.18439 26.0056C1.57373 27.0073 2.09412 27.8571 2.94102 28.7037C3.78729 29.5509 4.63705 30.0725 5.63817 30.4615C6.60723 30.8382 7.71433 31.0949 9.33548 31.1691C10.9601 31.2431 11.4789 31.2612 15.6151 31.2612C19.7518 31.2612 20.2694 31.2431 21.894 31.1691C23.5155 31.0949 24.6235 30.8382 25.5926 30.4615C26.594 30.0725 27.4425 29.5509 28.2888 28.7037C29.136 27.8571 29.6564 27.0073 30.0467 26.0059C30.4211 25.0372 30.6781 23.9301 30.7543 22.3093C30.8273 20.6847 30.8463 20.1668 30.8463 16.0304C30.8463 11.894 30.8273 11.3749 30.7543 9.75024C30.6781 8.12879 30.4211 7.02202 30.0467 6.0536C29.6564 5.05186 29.136 4.20211 28.2888 3.35554C27.4416 2.50832 26.5943 1.98794 25.5916 1.59924C24.6207 1.22259 23.5132 0.965891 21.8918 0.891641C20.2672 0.817708 19.7499 0.799622 15.6122 0.799622H15.6166ZM14.2503 3.54433C14.6558 3.5437 15.1083 3.54433 15.6166 3.54433C19.6833 3.54433 20.1653 3.55893 21.7712 3.63191C23.2562 3.69981 24.0622 3.94795 24.5991 4.15642C25.3099 4.43248 25.8166 4.76248 26.3494 5.29555C26.8825 5.82863 27.2125 6.33632 27.4892 7.04709C27.6976 7.58334 27.9461 8.3893 28.0137 9.8743C28.0866 11.4799 28.1025 11.9622 28.1025 16.0269C28.1025 20.0916 28.0866 20.5739 28.0137 22.1795C27.9458 23.6645 27.6976 24.4705 27.4892 25.0067C27.2131 25.7175 26.8825 26.2236 26.3494 26.7563C25.8163 27.2894 25.3102 27.6194 24.5991 27.8955C24.0628 28.1049 23.2562 28.3524 21.7712 28.4203C20.1656 28.4933 19.6833 28.5092 15.6166 28.5092C11.5497 28.5092 11.0677 28.4933 9.46208 28.4203C7.97707 28.3518 7.1711 28.1036 6.63389 27.8952C5.92311 27.6191 5.41541 27.2891 4.88233 26.756C4.34925 26.2229 4.01925 25.7165 3.74255 25.0054C3.53408 24.4692 3.28562 23.6632 3.21804 22.1782C3.14505 20.5727 3.13046 20.0903 3.13046 16.0231C3.13046 11.9558 3.14505 11.4761 3.21804 9.8705C3.28594 8.3855 3.53408 7.57953 3.74255 7.04265C4.01861 6.33188 4.34925 5.82419 4.88233 5.29111C5.41541 4.75804 5.92311 4.42803 6.63389 4.15134C7.17078 3.94192 7.97707 3.69442 9.46208 3.6262C10.8671 3.56274 11.4116 3.5437 14.2503 3.54053V3.54433Z" fill="url(#paint3_radial_749_7221)"/>
<path d="M23.714 6.03586C23.3525 6.03586 22.9991 6.14307 22.6985 6.34393C22.398 6.54479 22.1637 6.83027 22.0254 7.16427C21.8871 7.49828 21.8509 7.8658 21.9215 8.22035C21.9921 8.57491 22.1662 8.90057 22.4219 9.15615C22.6775 9.41174 23.0033 9.58576 23.3579 9.65621C23.7124 9.72666 24.08 9.69037 24.4139 9.55194C24.7479 9.41351 25.0333 9.17915 25.234 8.8785C25.4348 8.57786 25.5419 8.22443 25.5417 7.86292C25.5417 6.85388 24.7231 6.03523 23.714 6.03523V6.03586Z" fill="url(#paint4_radial_749_7221)"/>
<path fill-rule="evenodd" clip-rule="evenodd" d="M15.5839 8.17134C11.2643 8.17134 7.76218 11.6735 7.76218 15.993C7.76218 20.3125 11.2643 23.813 15.5839 23.813C19.9034 23.813 23.4047 20.3125 23.4047 15.993C23.4047 11.6735 19.9034 8.17134 15.5839 8.17134ZM15.6155 21.028C18.3756 21.028 20.6131 18.7905 20.6131 16.0304C20.6131 13.2703 18.3756 11.0328 15.6155 11.0328C12.8554 11.0328 10.6179 13.2703 10.6179 16.0304C10.6179 18.7905 12.8554 21.028 15.6155 21.028Z" fill="url(#paint5_radial_749_7221)"/>
<defs>
<radialGradient id="paint0_radial_749_7221" cx="0" cy="0" r="1" gradientUnits="userSpaceOnUse" gradientTransform="translate(8.47615 33.6073) rotate(-90) scale(30.1896 28.0787)">
<stop stop-color="#FFDD55"/>
<stop offset="0.1" stop-color="#FFDD55"/>
<stop offset="0.5" stop-color="#FF543E"/>
<stop offset="1" stop-color="#C837AB"/>
</radialGradient>
<radialGradient id="paint1_radial_749_7221" cx="0" cy="0" r="1" gradientUnits="userSpaceOnUse" gradientTransform="translate(8.47615 33.6073) rotate(-90) scale(30.1896 28.0787)">
<stop stop-color="#FFDD55"/>
<stop offset="0.1" stop-color="#FFDD55"/>
<stop offset="0.5" stop-color="#FF543E"/>
<stop offset="1" stop-color="#C837AB"/>
</radialGradient>
<radialGradient id="paint2_radial_749_7221" cx="0" cy="0" r="1" gradientUnits="userSpaceOnUse" gradientTransform="translate(8.47615 33.6073) rotate(-90) scale(30.1896 28.0787)">
<stop stop-color="#FFDD55"/>
<stop offset="0.1" stop-color="#FFDD55"/>
<stop offset="0.5" stop-color="#FF543E"/>
<stop offset="1" stop-color="#C837AB"/>
</radialGradient>
<radialGradient id="paint3_radial_749_7221" cx="0" cy="0" r="1" gradientUnits="userSpaceOnUse" gradientTransform="translate(-4.7177 2.99402) rotate(78.6806) scale(13.4949 55.6265)">
<stop stop-color="#3771C8"/>
<stop offset="0.128" stop-color="#3771C8"/>
<stop offset="1" stop-color="#6600FF" stop-opacity="0"/>
</radialGradient>
<radialGradient id="paint4_radial_749_7221" cx="0" cy="0" r="1" gradientUnits="userSpaceOnUse" gradientTransform="translate(-4.7177 2.99402) rotate(78.6806) scale(13.4949 55.6265)">
<stop stop-color="#3771C8"/>
<stop offset="0.128" stop-color="#3771C8"/>
<stop offset="1" stop-color="#6600FF" stop-opacity="0"/>
</radialGradient>
<radialGradient id="paint5_radial_749_7221" cx="0" cy="0" r="1" gradientUnits="userSpaceOnUse" gradientTransform="translate(-4.7177 2.99402) rotate(78.6806) scale(13.4949 55.6265)">
<stop stop-color="#3771C8"/>
<stop offset="0.128" stop-color="#3771C8"/>
<stop offset="1" stop-color="#6600FF" stop-opacity="0"/>
</radialGradient>
</defs>
</svg>
