<svg width="21" height="22" viewBox="0 0 21 22" fill="none" xmlns="http://www.w3.org/2000/svg">
<path d="M0 10.923C0 5.23027 4.61491 0.615356 10.3077 0.615356C16.0005 0.615356 20.6154 5.23027 20.6154 10.923C20.6154 16.6158 16.0005 21.2307 10.3077 21.2307C4.61491 21.2307 0 16.6158 0 10.923Z" fill="#55ACEE"/>
<path d="M9.99894 8.99359L10.0206 9.35026L9.66007 9.30659C8.34785 9.13917 7.20145 8.57141 6.2281 7.61787L5.75224 7.14474L5.62967 7.49413C5.37011 8.27298 5.53594 9.0955 6.07669 9.6487C6.36509 9.95442 6.3002 9.99809 5.80271 9.81612C5.62967 9.75789 5.47826 9.71421 5.46384 9.73605C5.41337 9.787 5.58641 10.4494 5.7234 10.7114C5.91086 11.0754 6.29299 11.432 6.71117 11.6431L7.06446 11.8106L6.64628 11.8178C6.24252 11.8178 6.2281 11.8251 6.27136 11.978C6.41556 12.4511 6.98515 12.9534 7.61963 13.1717L8.06666 13.3246L7.67731 13.5575C7.10051 13.8923 6.42277 14.0816 5.74503 14.0961C5.42058 14.1034 5.15381 14.1325 5.15381 14.1544C5.15381 14.2272 6.03343 14.6348 6.54534 14.7949C8.08108 15.2681 9.90521 15.0643 11.2751 14.2563C12.2485 13.6812 13.2218 12.5385 13.676 11.432C13.9212 10.8425 14.1663 9.76516 14.1663 9.24836C14.1663 8.91353 14.188 8.86985 14.5917 8.46951C14.8297 8.23658 15.0532 7.98182 15.0964 7.90903C15.1685 7.77073 15.1613 7.77073 14.7936 7.89447C14.1807 8.11284 14.0942 8.08372 14.397 7.75617C14.6206 7.52324 14.8873 7.10106 14.8873 6.97732C14.8873 6.95548 14.7792 6.99188 14.6566 7.05739C14.5268 7.13018 14.2384 7.23936 14.0221 7.30487L13.6328 7.42862L13.2795 7.18841C13.0848 7.05739 12.8108 6.91181 12.6666 6.86814C12.2989 6.76623 11.7366 6.78079 11.4049 6.89725C10.5036 7.2248 9.93405 8.06916 9.99894 8.99359Z" fill="white"/>
</svg>
