<svg width="32" height="32" viewBox="0 0 32 32" fill="none" xmlns="http://www.w3.org/2000/svg">
<path d="M0.846191 16.0304C0.846191 7.61867 7.66524 0.799622 16.077 0.799622C24.4887 0.799622 31.3077 7.61867 31.3077 16.0304C31.3077 24.4421 24.4887 31.2612 16.077 31.2612C7.66524 31.2612 0.846191 24.4421 0.846191 16.0304Z" fill="#55ACEE"/>
<path d="M15.6207 13.1793L15.6526 13.7064L15.1199 13.6418C13.181 13.3945 11.4871 12.5555 10.0488 11.1466L9.34568 10.4475L9.16456 10.9637C8.78103 12.1146 9.02607 13.3299 9.82509 14.1473C10.2512 14.5991 10.1553 14.6636 9.42025 14.3947C9.16456 14.3087 8.94084 14.2441 8.91953 14.2764C8.84496 14.3517 9.10064 15.3304 9.30306 15.7176C9.58005 16.2554 10.1447 16.7824 10.7626 17.0943L11.2846 17.3417L10.6667 17.3525C10.0701 17.3525 10.0488 17.3632 10.1127 17.5891C10.3258 18.2882 11.1674 19.0303 12.105 19.353L12.7655 19.5789L12.1902 19.923C11.3379 20.4178 10.3365 20.6974 9.33502 20.7189C8.85561 20.7297 8.46143 20.7727 8.46143 20.805C8.46143 20.9125 9.76117 21.5149 10.5176 21.7515C12.7868 22.4506 15.4822 22.1494 17.5063 20.9556C18.9446 20.1059 20.3828 18.4173 21.054 16.7824C21.4162 15.9112 21.7784 14.3194 21.7784 13.5558C21.7784 13.061 21.8104 12.9965 22.407 12.405C22.7586 12.0608 23.0888 11.6843 23.1528 11.5768C23.2593 11.3724 23.2486 11.3724 22.7053 11.5553C21.7997 11.8779 21.6719 11.8349 22.1194 11.3509C22.4496 11.0067 22.8438 10.3829 22.8438 10.2001C22.8438 10.1678 22.684 10.2216 22.5029 10.3184C22.3111 10.4259 21.885 10.5873 21.5654 10.6841L20.9901 10.8669L20.468 10.512C20.1804 10.3184 19.7756 10.1033 19.5625 10.0387C19.0192 9.88817 18.1882 9.90968 17.6981 10.0818C16.3664 10.5658 15.5248 11.8134 15.6207 13.1793Z" fill="white"/>
</svg>
