<svg width="390" height="307" viewBox="0 0 390 307" fill="none" xmlns="http://www.w3.org/2000/svg">
<path opacity="0.7" d="M10.6622 50.6009L12.8569 45.5086L25.5328 49.4837L33.4045 51.0055L41.298 47.0432L46.1636 41.1689L58.4521 39.1927L60.9428 38.7786L64.852 32.4075L70.7867 29.1623L51.5829 8.92781L92.182 3.71379L95.0494 1.40021L115.656 5.80339L129.005 12.5575L142.798 21.2553L146.782 23.6644L196.475 63.371L222.248 58.4541L241.465 68.2674L246.795 76.2344L248.333 78.2373L251.748 80.0486L253.361 79.3888L254.714 79.7362L256.34 80.0981L257.145 80.4158L257.633 81.5391L258.35 83.4979L264.603 85.499L265.545 89.9925L268.997 94.8774L272.575 96.954L276.948 100.701L278.294 106.259L281.097 108.493L281.602 112.701L277.453 113.746L279.287 120.427L282.147 123.324L283.566 127.514L285.481 127.618L288.223 132.702L287.987 137.077L293.233 144.986L300.536 151.289L308.993 151.672L311.533 157.343L310.898 158.955L312.163 160.929L313.729 162.399L316.405 163.64L314.388 175.599L353.399 184.56L376.158 194.535L381.154 193.737L388.162 206.183L372.829 241.283L316.07 256.236L311.113 256.602L293.508 257.572L274.764 259.303L266.789 259.696L260.943 261.3L252.655 264.926L249.791 265.802L247.798 266.21L243.774 269.424L238.889 273.549L234.433 279.89L233.093 282.941L232.49 283.682L232.449 284.446L231.564 285.178L231.003 285.148L230.077 286.644L228.884 287.868L227.438 288.563L225.473 288.457L224.363 288.14L222.959 288.064L222.439 287.263L222.227 285.963C222.063 285.524 221.682 284.593 221.468 284.376C221.254 284.158 221.041 283.579 220.961 283.317L219.332 282.199L217.366 282.093L214.824 282.398L213.439 282.654L210.722 282.176L208.808 282.073L206.961 281.789L204.995 281.683L202.85 280.654C202.213 280.276 201.156 279.74 200.707 279.716C200.258 279.692 199.463 279.236 199.098 279.045L197.196 278.704L195.297 278.324L193.382 278.221C193.026 277.858 191.898 278.038 191.695 277.615C191.493 277.191 189.839 276.489 189.08 276.62C188.416 276.756 186.507 276.756 186.057 276.731C185.496 276.701 184.143 276.902 183.582 276.872C183.132 276.847 181.847 276.911 181.651 277.072C180.893 277.203 180.72 277.266 180.27 277.242C179.821 277.217 179.441 277.369 179.45 277.197C179.272 277.016 179.204 277.353 178.777 276.917C178.243 276.373 178.437 275.771 178.157 275.756C177.875 275.741 177.637 275.487 177.048 275.971C176.576 276.358 175.445 276.909 175.361 276.733C175.174 276.723 174.235 276.367 174.01 276.355L173.19 276.311C171.822 276.237 170.982 276.843 170.411 276.984L168.467 277.427L166.796 277.886C166.358 277.862 165.199 277.989 165.199 277.989L164.565 290.022L168.11 294.285L167.727 300.895L163.895 305.254L157.428 303.29L146.506 296.44L139.657 282.597L126.122 270.993L123.532 264.433L122.512 263.007L119.674 259.128L120.694 256.052L119.674 254.626L118.668 252.926L117.16 250.376L115.497 245.624L113.08 240.613L111.269 238.595L109.961 237.427L108.379 236.245L106.782 235.336L105.46 234.442L102.445 231.863L101.136 230.695L99.82 229.801L97.9285 229.151L95.5408 227.651L92.9074 225.63L90.8166 223.713L89.5758 221.295L88.297 219.58L85.9537 217.26L84.2019 214.148L81.9031 211.007L81.8951 206.07L80.7936 201.074L80.4678 196.943L80.6304 193.935L80.7926 190.927L80.9549 187.918L79.5407 181.418L75.852 173.539L73.915 168.772L72.1632 165.661L69.8641 162.52L68.0974 159.682L64.6753 157.029L61.3804 153.484L57.6109 152.184L54.6765 150.654L51.5129 148.289L48.9993 144.04L46.9887 140.64L48.9993 136.096L46.9887 129.628L42.9525 123.103L38.0519 117.353C36.182 116.429 33.1806 111.056 32.7518 108.839C32.636 108.24 29.2532 102.421 26.2172 97.7902L20.8726 90.0968L17.8271 85.5441L14.5524 80.1566L8.38758 72.4189L1.82422 72.0648L7.81716 57.5782L10.6622 50.6009Z" stroke="white" stroke-width="2.4237"/>
</svg>
