<svg width="21" height="22" viewBox="0 0 21 22" fill="none" xmlns="http://www.w3.org/2000/svg">
<path d="M20.6154 11.1538C20.6154 5.46098 16.0005 0.846069 10.3077 0.846069C4.61491 0.846069 0 5.46098 0 11.1538C0 16.8465 4.61491 21.4615 10.3077 21.4615C16.0005 21.4615 20.6154 16.8465 20.6154 11.1538Z" fill="#FF0000"/>
<path d="M10.3035 6.2901C10.3035 6.2901 5.95925 6.2901 4.8689 6.57343C4.28509 6.73655 3.80436 7.21728 3.64124 7.80968C3.35792 8.90003 3.35791 11.1581 3.35791 11.1581C3.35791 11.1581 3.35792 13.4247 3.64124 14.4979C3.80436 15.0903 4.2765 15.5624 4.8689 15.7255C5.96784 16.0174 10.3035 16.0174 10.3035 16.0174C10.3035 16.0174 14.6564 16.0174 15.7467 15.7341C16.3391 15.571 16.8113 15.1074 16.9658 14.5065C17.2577 13.4247 17.2577 11.1667 17.2577 11.1667C17.2577 11.1667 17.2663 8.90003 16.9658 7.80968C16.8113 7.21728 16.3391 6.74515 15.7467 6.59061C14.6564 6.29011 10.3035 6.2901 10.3035 6.2901ZM8.92125 9.07183L12.5358 11.1581L8.92125 13.2357V9.07183Z" fill="white"/>
</svg>
