<svg width="31" height="32" viewBox="0 0 31 32" fill="none" xmlns="http://www.w3.org/2000/svg">
<path d="M31.0001 16.0304C31.0001 7.61867 24.1811 0.799622 15.7693 0.799622C7.35762 0.799622 0.538574 7.61867 0.538574 16.0304C0.538574 24.4421 7.35762 31.2612 15.7693 31.2612C24.1811 31.2612 31.0001 24.4421 31.0001 16.0304Z" fill="#FF0000"/>
<path d="M15.7629 8.84375C15.7629 8.84375 9.34378 8.84376 7.73266 9.2624C6.87001 9.50343 6.15968 10.2138 5.91865 11.0891C5.50001 12.7002 5.5 16.0367 5.5 16.0367C5.5 16.0367 5.50001 19.3859 5.91865 20.9716C6.15968 21.847 6.85732 22.5446 7.73266 22.7857C9.35646 23.217 15.7629 23.217 15.7629 23.217C15.7629 23.217 22.1948 23.217 23.8059 22.7983C24.6812 22.5573 25.3788 21.8724 25.6072 20.9843C26.0385 19.3859 26.0385 16.0494 26.0385 16.0494C26.0385 16.0494 26.0512 12.7002 25.6072 11.0891C25.3788 10.2138 24.6812 9.51613 23.8059 9.28778C22.1948 8.84377 15.7629 8.84375 15.7629 8.84375V8.84375ZM13.7205 12.9541L19.0613 16.0367L13.7205 19.1067V12.9541V12.9541Z" fill="white"/>
</svg>
